<svg width="19" height="18" viewBox="0 0 19 18" fill="none" xmlns="http://www.w3.org/2000/svg">
<path d="M6.875 12.375C7.39897 11.4692 8.3783 10.8598 9.5 10.8598C10.6217 10.8598 11.6011 11.4692 12.125 12.375M11 7.5C11 8.32845 10.3284 9 9.5 9C8.67162 9 8 8.32845 8 7.5C8 6.67157 8.67162 6 9.5 6C10.3284 6 11 6.67157 11 7.5Z" stroke="#007F00" stroke-width="1.125" stroke-linecap="round"/>
<path d="M17 10.4752V7.5249C14.8575 7.5249 13.4643 5.19781 14.549 3.35018L11.9509 1.87507C10.8529 3.74554 8.14835 3.74546 7.05022 1.875L4.45215 3.35011C5.53689 5.19776 4.14255 7.5249 2 7.5249V10.4752C4.14251 10.4752 5.53569 12.8023 4.45096 14.6499L7.04904 16.125C8.14767 14.2536 10.8534 14.2535 11.9521 16.1249L14.5502 14.6498C13.4656 12.8022 14.8575 10.4752 17 10.4752Z" stroke="#007F00" stroke-width="1.125" stroke-linecap="round" stroke-linejoin="round"/>
</svg>
