<svg width="46" height="32" viewBox="0 0 46 32" fill="none" xmlns="http://www.w3.org/2000/svg">
<rect x="0.5" y="0.5" width="45" height="31" rx="5.5" fill="white"/>
<rect x="0.5" y="0.5" width="45" height="31" rx="5.5" stroke="#F2F4F7"/>
<path fill-rule="evenodd" clip-rule="evenodd" d="M12.6958 11.1242C12.309 11.5934 11.6902 11.9635 11.0714 11.9106C10.994 11.2762 11.297 10.6021 11.6515 10.1858C12.0383 9.70338 12.7151 9.35975 13.263 9.33331C13.3275 9.99415 13.0761 10.6418 12.6958 11.1242ZM13.2565 12.0361C12.7114 12.004 12.2139 12.2042 11.8121 12.366C11.5536 12.4701 11.3346 12.5582 11.168 12.5582C10.9811 12.5582 10.7531 12.4654 10.4971 12.3611C10.1617 12.2245 9.77817 12.0683 9.37602 12.0758C8.45423 12.089 7.59691 12.6243 7.12635 13.4768C6.15944 15.1817 6.87495 17.7062 7.80963 19.0939C8.2673 19.7812 8.81521 20.5345 9.53717 20.5081C9.85478 20.4958 10.0833 20.3964 10.3197 20.2936C10.5919 20.1752 10.8747 20.0521 11.3163 20.0521C11.7425 20.0521 12.0129 20.1719 12.2725 20.287C12.5194 20.3963 12.7564 20.5013 13.1083 20.4949C13.856 20.4817 14.3266 19.8076 14.7842 19.1203C15.2781 18.3827 15.4952 17.6628 15.5281 17.5536L15.532 17.5409C15.5312 17.5401 15.5251 17.5373 15.5144 17.5322L15.5143 17.5322C15.3492 17.4547 14.0873 16.8625 14.0752 15.2743C14.063 13.9412 15.0761 13.2658 15.2356 13.1595L15.2356 13.1594C15.2453 13.153 15.2518 13.1486 15.2548 13.1464C14.6102 12.1683 13.6046 12.0626 13.2565 12.0361ZM18.4327 20.4222V10.1197H22.2037C24.1504 10.1197 25.5105 11.4943 25.5105 13.5032C25.5105 15.5122 24.1246 16.8999 22.1521 16.8999H19.9927V20.4222H18.4327ZM19.9926 11.4678H21.791C23.1447 11.4678 23.9182 12.208 23.9182 13.5098C23.9182 14.8117 23.1447 15.5584 21.7846 15.5584H19.9926V11.4678ZM30.661 19.1864C30.2484 19.9927 29.3395 20.5015 28.3597 20.5015C26.9094 20.5015 25.8973 19.616 25.8973 18.2811C25.8973 16.9594 26.8771 16.1994 28.6885 16.0871L30.6352 15.9681V15.3998C30.6352 14.5606 30.1002 14.1046 29.1461 14.1046C28.3597 14.1046 27.786 14.5209 27.67 15.1553H26.2648C26.3099 13.8204 27.5346 12.849 29.1913 12.849C30.9768 12.849 32.1371 13.8072 32.1371 15.2941V20.4222H30.6932V19.1864H30.661ZM28.7786 19.279C27.9471 19.279 27.4185 18.8692 27.4185 18.2414C27.4185 17.5938 27.9277 17.2171 28.9011 17.1577L30.6351 17.0453V17.6269C30.6351 18.5917 29.8358 19.279 28.7786 19.279ZM36.9264 20.8253C36.3012 22.6294 35.5857 23.2242 34.0644 23.2242C33.9484 23.2242 33.5616 23.211 33.4714 23.1845V21.9488C33.5681 21.962 33.8066 21.9752 33.929 21.9752C34.6188 21.9752 35.0055 21.6778 35.244 20.9046L35.3858 20.4487L32.743 12.9481H34.3738L36.2109 19.0345H36.2432L38.0803 12.9481H39.666L36.9264 20.8253Z" fill="black"/>
</svg>
