<svg width="19" height="16" viewBox="0 0 19 16" fill="none" xmlns="http://www.w3.org/2000/svg">
<path d="M10.0601 15.2806C9.99033 15.211 9.93501 15.1283 9.89727 15.0372C9.85952 14.9462 9.8401 14.8486 9.8401 14.75C9.8401 14.6514 9.85952 14.5538 9.89727 14.4628C9.93501 14.3718 9.99033 14.289 10.0601 14.2194L15.5304 8.75L0.840689 8.75C0.641777 8.75 0.45101 8.67099 0.310358 8.53034C0.169706 8.38968 0.0906887 8.19892 0.0906887 8C0.0906887 7.80109 0.169706 7.61033 0.310358 7.46968C0.45101 7.32902 0.641777 7.25 0.840689 7.25L15.5304 7.25L10.0601 1.78063C9.91933 1.6399 9.84027 1.44903 9.84027 1.25001C9.84027 1.05098 9.91933 0.860111 10.0601 0.71938C10.2008 0.57865 10.3917 0.499588 10.5907 0.499588C10.7897 0.499588 10.9806 0.57865 11.1213 0.71938L17.8713 7.46938C17.941 7.53903 17.9964 7.62175 18.0341 7.7128C18.0719 7.80385 18.0913 7.90144 18.0913 8C18.0913 8.09857 18.0719 8.19616 18.0341 8.28721C17.9964 8.37826 17.941 8.46098 17.8713 8.53063L11.1213 15.2806C11.0517 15.3504 10.9689 15.4057 10.8779 15.4434C10.7868 15.4812 10.6892 15.5006 10.5907 15.5006C10.4921 15.5006 10.3945 15.4812 10.3035 15.4434C10.2124 15.4057 10.1297 15.3504 10.0601 15.2806Z" fill="black"/>
</svg>
