<svg width="18" height="18" viewBox="0 0 18 18" fill="none" xmlns="http://www.w3.org/2000/svg">
<path d="M12 15.75V3.75C12 3.35218 11.842 2.97064 11.5607 2.68934C11.2794 2.40804 10.8978 2.25 10.5 2.25H7.5C7.10218 2.25 6.72064 2.40804 6.43934 2.68934C6.15804 2.97064 6 3.35218 6 3.75V15.75M3 5.25H15C15.8284 5.25 16.5 5.92157 16.5 6.75V14.25C16.5 15.0784 15.8284 15.75 15 15.75H3C2.17157 15.75 1.5 15.0784 1.5 14.25V6.75C1.5 5.92157 2.17157 5.25 3 5.25Z" stroke="#FDFFFD" stroke-width="1.5" stroke-linecap="round" stroke-linejoin="round"/>
</svg>
