<svg width="25" height="24" viewBox="0 0 25 24" fill="none" xmlns="http://www.w3.org/2000/svg">
<path d="M22.6885 11.5667C22.6885 16.8499 18.2107 21.1334 12.6885 21.1334C12.0392 21.1343 11.3917 21.0742 10.7539 20.9545C10.2948 20.8682 10.0653 20.8251 9.90501 20.8496C9.74475 20.8741 9.51766 20.9948 9.06347 21.2364C7.77862 21.9197 6.28043 22.161 4.83959 21.893C5.38722 21.2194 5.76123 20.4112 5.92626 19.5448C6.02626 19.0148 5.77848 18.5 5.40737 18.1231C3.72181 16.4115 2.68848 14.1051 2.68848 11.5667C2.68848 6.28357 7.16626 2 12.6885 2C18.2107 2 22.6885 6.28357 22.6885 11.5667Z" stroke="#49454F" stroke-width="1.5" stroke-linejoin="round"/>
<path d="M12.684 12H12.693M16.6795 12H16.6885M8.68848 12H8.69745" stroke="#49454F" stroke-width="2" stroke-linecap="round" stroke-linejoin="round"/>
</svg>
