<svg width="40" height="40" viewBox="0 0 40 40" fill="none" xmlns="http://www.w3.org/2000/svg">
<circle cx="20" cy="20" r="20" fill="#F9F9F9"/>
<path d="M17.8294 28.8905C13.6464 28.6125 10.3144 25.2332 10.0402 20.9909C9.9866 20.1607 9.9866 19.3009 10.0402 18.4707C10.3144 14.2284 13.6464 10.8491 17.8294 10.5711C19.2565 10.4762 20.7464 10.4764 22.1706 10.5711C26.3536 10.8491 29.6856 14.2284 29.9598 18.4707C30.0134 19.3009 30.0134 20.1607 29.9598 20.9909C29.8599 22.536 29.1766 23.9666 28.3721 25.1746C27.905 26.0203 28.2133 27.0758 28.6998 27.9978C29.0506 28.6626 29.226 28.995 29.0852 29.2351C28.9443 29.4752 28.6297 29.4829 28.0006 29.4982C26.7563 29.5285 25.9173 29.1757 25.2513 28.6846C24.8736 28.4061 24.6847 28.2668 24.5546 28.2508C24.4244 28.2348 24.1682 28.3403 23.656 28.5513C23.1956 28.7409 22.661 28.8579 22.1706 28.8905C20.7464 28.9852 19.2565 28.9854 17.8294 28.8905Z" stroke="#605D66" stroke-width="1.125" stroke-linejoin="round"/>
<path d="M20.0045 20H19.9956M16.009 20H16M24 20H23.991" stroke="#605D66" stroke-width="1.5" stroke-linecap="round" stroke-linejoin="round"/>
</svg>
