<svg width="19" height="18" viewBox="0 0 19 18" fill="none" xmlns="http://www.w3.org/2000/svg">
<path d="M17 4.5H11" stroke="white" stroke-width="1.125" stroke-linecap="round" stroke-linejoin="round"/>
<path d="M2 4.5C2 3.4499 2 2.92485 2.20436 2.52377C2.38413 2.17097 2.67097 1.88413 3.02377 1.70436C3.42485 1.5 3.9499 1.5 5 1.5C6.0501 1.5 6.57515 1.5 6.97624 1.70436C7.32904 1.88413 7.61587 2.17097 7.79564 2.52377C8 2.92485 8 3.4499 8 4.5C8 5.5501 8 6.07515 7.79564 6.47624C7.61587 6.82904 7.32904 7.11587 6.97624 7.29564C6.57515 7.5 6.0501 7.5 5 7.5C3.9499 7.5 3.42485 7.5 3.02377 7.29564C2.67097 7.11587 2.38413 6.82904 2.20436 6.47624C2 6.07515 2 5.5501 2 4.5Z" fill="white" stroke="white" stroke-width="1.125"/>
<path d="M2 13.5C2 12.4499 2 11.9248 2.20436 11.5237C2.38413 11.1709 2.67097 10.8842 3.02377 10.7044C3.42485 10.5 3.9499 10.5 5 10.5C6.0501 10.5 6.57515 10.5 6.97624 10.7044C7.32904 10.8842 7.61587 11.1709 7.79564 11.5237C8 11.9248 8 12.4499 8 13.5C8 14.5501 8 15.0752 7.79564 15.4763C7.61587 15.8291 7.32904 16.1159 6.97624 16.2956C6.57515 16.5 6.0501 16.5 5 16.5C3.9499 16.5 3.42485 16.5 3.02377 16.2956C2.67097 16.1159 2.38413 15.8291 2.20436 15.4763C2 15.0752 2 14.5501 2 13.5Z" fill="white" stroke="white" stroke-width="1.125"/>
<path d="M11 13.5C11 12.4499 11 11.9248 11.2044 11.5237C11.3842 11.1709 11.6709 10.8842 12.0237 10.7044C12.4248 10.5 12.9499 10.5 14 10.5C15.0501 10.5 15.5752 10.5 15.9763 10.7044C16.3291 10.8842 16.6159 11.1709 16.7956 11.5237C17 11.9248 17 12.4499 17 13.5C17 14.5501 17 15.0752 16.7956 15.4763C16.6159 15.8291 16.3291 16.1159 15.9763 16.2956C15.5752 16.5 15.0501 16.5 14 16.5C12.9499 16.5 12.4248 16.5 12.0237 16.2956C11.6709 16.1159 11.3842 15.8291 11.2044 15.4763C11 15.0752 11 14.5501 11 13.5Z" fill="white" stroke="white" stroke-width="1.125"/>
</svg>
