<svg width="40" height="40" viewBox="0 0 40 40" fill="none" xmlns="http://www.w3.org/2000/svg">
<circle cx="20" cy="20" r="20" fill="#F9F9F9"/>
<path d="M27.5 13.5L26.8803 23.5251C26.7219 26.0864 26.6428 27.3671 26.0008 28.2879C25.6833 28.7431 25.2747 29.1273 24.8007 29.416C23.8421 30 22.559 30 19.9927 30C17.4231 30 16.1383 30 15.179 29.4149C14.7048 29.1257 14.296 28.7408 13.9787 28.2848C13.3369 27.3626 13.2594 26.0801 13.1046 23.5152L12.5 13.5" stroke="#605D66" stroke-width="1.5" stroke-linecap="round"/>
<path d="M11 13.5H29M24.0557 13.5L23.3731 12.0917C22.9196 11.1563 22.6928 10.6885 22.3017 10.3968C22.215 10.3321 22.1231 10.2745 22.027 10.2247C21.5939 10 21.0741 10 20.0345 10C18.9688 10 18.436 10 17.9957 10.2341C17.8981 10.286 17.805 10.3459 17.7173 10.4132C17.3216 10.7167 17.1006 11.2015 16.6586 12.1713L16.0529 13.5" stroke="#605D66" stroke-width="1.5" stroke-linecap="round"/>
<path d="M17.5 24.5V18.5" stroke="#605D66" stroke-width="1.5" stroke-linecap="round"/>
<path d="M22.5 24.5V18.5" stroke="#605D66" stroke-width="1.5" stroke-linecap="round"/>
</svg>
