<svg width="24" height="24" viewBox="0 0 24 24" fill="none" xmlns="http://www.w3.org/2000/svg">
<path d="M19.435 4.06494H4.565C3.90196 4.06494 3.26608 4.32833 2.79724 4.79717C2.32839 5.26602 2.065 5.9019 2.065 6.56494V17.4349C2.065 18.098 2.32839 18.7339 2.79724 19.2027C3.26608 19.6715 3.90196 19.9349 4.565 19.9349H19.435C20.098 19.9349 20.7339 19.6715 21.2028 19.2027C21.6716 18.7339 21.935 18.098 21.935 17.4349V6.56494C21.935 5.9019 21.6716 5.26602 21.2028 4.79717C20.7339 4.32833 20.098 4.06494 19.435 4.06494ZM4.565 5.06494H19.435C19.8134 5.06409 20.178 5.20727 20.4548 5.46542C20.7315 5.72357 20.8996 6.07735 20.925 6.45494C18.455 7.77494 15.975 9.08494 13.495 10.4049C13.16 10.6162 12.805 10.7937 12.435 10.9349C12.1449 10.9924 11.8459 10.9873 11.5579 10.9201C11.27 10.8528 10.9996 10.7249 10.765 10.5449C9.345 9.79494 7.925 9.03494 6.515 8.28494C5.375 7.68494 4.215 7.07494 3.075 6.46494C3.09796 6.08557 3.26502 5.72932 3.542 5.46907C3.81898 5.20882 4.18494 5.06425 4.565 5.06494ZM20.935 17.4349C20.935 17.8328 20.777 18.2143 20.4957 18.4956C20.2144 18.7769 19.8328 18.9349 19.435 18.9349H4.565C4.16718 18.9349 3.78565 18.7769 3.50434 18.4956C3.22304 18.2143 3.065 17.8328 3.065 17.4349V7.59994C5.425 8.83994 7.775 10.0999 10.135 11.3499C10.5565 11.6087 11.0105 11.8104 11.485 11.9499C12.1794 12.063 12.8911 11.9171 13.485 11.5399C14.935 10.7799 16.375 10.0099 17.825 9.24994C18.865 8.68994 19.895 8.14994 20.935 7.59994V17.4349Z" fill="#79747E"/>
</svg>
