<svg width="12" height="13" viewBox="0 0 12 13" fill="none" xmlns="http://www.w3.org/2000/svg">
<path fill-rule="evenodd" clip-rule="evenodd" d="M11.1743 0.0708074L11.0867 0L10.8844 0.18882C10.7731 0.293344 10.382 0.664239 10.0212 1.01153L9.36033 1.64205C9.16477 1.52067 8.99955 1.42963 8.87142 1.36557C8.73992 1.3015 8.49041 1.19361 8.31508 1.12617C8.13638 1.06211 7.84303 0.971071 7.65758 0.923866C7.47213 0.876661 7.19902 0.822713 7.05066 0.79911C6.8787 0.775508 6.52804 0.765393 6.0897 0.775508C5.55696 0.788995 5.32431 0.809226 5.07817 0.863174C4.89947 0.903635 4.63647 0.974443 4.48811 1.02165C4.33975 1.06885 4.00595 1.21384 3.74632 1.34197C3.44623 1.48695 3.13603 1.67577 2.90338 1.84773C2.6977 1.99946 2.38075 2.27932 2.1953 2.46477C2.00648 2.65359 1.77046 2.91996 1.66593 3.0582C1.56141 3.19981 1.40631 3.43247 1.31864 3.58082C1.23098 3.72918 1.09273 3.99892 1.01181 4.181C0.927516 4.36307 0.809504 4.68002 0.748812 4.88907C0.723216 4.9726 0.696005 5.0728 0.670621 5.17421C0.276173 5.344 0 5.73618 0 6.19287C0 6.80508 0.496293 7.30137 1.1085 7.30137C1.72071 7.30137 2.217 6.80508 2.217 6.19287C2.217 5.79291 2.00517 5.44242 1.68758 5.24747C1.71952 5.1323 1.75282 5.02314 1.78058 4.94639C1.83452 4.79129 1.94916 4.52492 2.03346 4.35633C2.11775 4.19111 2.26274 3.9416 2.35715 3.79999C2.45156 3.66175 2.6977 3.38189 2.90338 3.17621C3.14277 2.93344 3.39228 2.72439 3.61145 2.57941C3.7969 2.45465 4.07001 2.29955 4.21837 2.22874C4.36673 2.16131 4.59264 2.07027 4.72413 2.02306C4.85226 1.97923 5.09503 1.9118 5.26362 1.87471C5.46256 1.83087 5.74916 1.80053 6.10656 1.79041C6.50781 1.77692 6.72697 1.78367 6.96637 1.82413C7.1417 1.85448 7.41818 1.91517 7.58003 1.96237C7.74187 2.00958 8.01499 2.10736 8.18695 2.18154C8.35891 2.25572 8.64214 2.40407 8.8141 2.51197L9.12768 2.70416C9.92004 1.91854 10.4494 1.39591 10.8169 1.03513L11.4812 0.377639C11.3126 0.195563 11.2249 0.111269 11.1743 0.0708074ZM10.7136 2.11159L11.4681 2.00243L11.5397 2.49728L10.0247 2.71645L9.26431 2.82647L9.8144 2.29004L11.6203 0.529007L11.9694 0.886978L10.7136 2.11159ZM3.15906 10.7779C3.20189 10.8118 3.24471 10.8457 3.28744 10.8798C3.87172 11.3461 4.29356 11.5119 5.01718 11.7055C5.83055 11.9232 6.3429 11.9775 7.17088 11.8235C7.82847 11.7012 8.19907 11.5546 8.76495 11.2L8.77226 11.1954C9.23719 10.904 9.59714 10.6784 9.83332 10.2731C10.0707 9.86561 9.83332 7.13857 9.83332 7.13857H6.01772C6.01772 7.13857 5.77489 7.28814 5.76334 7.44191C5.75062 7.61128 5.85836 7.73443 6.01772 7.79581C6.12269 7.83625 6.30601 7.79581 6.30601 7.79581H8.96845V10.0035L8.06966 10.6775V8.73953H6.30601C6.30601 8.73953 5.96368 8.71764 5.76334 8.63842C5.49505 8.53234 5.35095 8.42372 5.16981 8.20026C5.00815 8.00084 4.94282 7.85916 4.88152 7.61044C4.81219 7.32918 4.828 7.15358 4.88152 6.86894C4.88507 6.85003 4.8884 6.83185 4.89161 6.81428C4.91831 6.66828 4.93737 6.56406 5.01718 6.43078C5.1066 6.28146 5.30547 6.178 5.30547 6.178H10.8339C10.8339 6.178 10.9521 10.4753 10.8339 10.6775C10.735 10.8466 10.4874 11.0535 10.2256 11.2721C10.1742 11.3151 10.1222 11.3585 10.0707 11.4022C10.0562 11.4145 10.0419 11.4266 10.0279 11.4385C9.73765 11.6849 9.56038 11.8354 9.22282 12.0426C8.74113 12.3383 8.44223 12.4702 7.90008 12.6324C7.45482 12.7656 7.19335 12.813 6.72996 12.8515C6.35379 12.8827 6.13985 12.8785 5.76334 12.8515C5.25404 12.815 4.96219 12.7828 4.47452 12.6324C4.08917 12.5135 3.88154 12.4154 3.52486 12.2279C3.3047 12.1122 3.15708 12.0127 2.99198 11.9013C2.90253 11.841 2.80794 11.7772 2.6939 11.7055C2.52626 11.6001 2.15167 11.2213 1.82868 10.8798C1.52645 10.5601 1.30074 10.2066 1.30074 10.2066L1.53118 8.63842C1.53118 8.63842 1.77112 9.2493 1.99862 9.599C2.34852 10.1368 2.75447 10.4579 3.15906 10.7779Z" fill="#007F00"/>
</svg>
