<svg width="265" height="174" viewBox="0 0 265 174" fill="none" xmlns="http://www.w3.org/2000/svg">
<path fill-rule="evenodd" clip-rule="evenodd" d="M172.2 0.54331L171.527 0L169.975 1.44882C169.121 2.25085 166.12 5.09675 163.352 7.76154L158.281 12.5996C156.781 11.6682 155.513 10.9696 154.53 10.4781C153.521 9.98652 151.606 9.15862 150.261 8.64118C148.89 8.14962 146.639 7.45108 145.216 7.08888C143.793 6.72667 141.697 6.31272 140.559 6.13162C139.239 5.95051 136.549 5.8729 133.185 5.95051C129.098 6.054 127.312 6.20923 125.424 6.62318C124.053 6.93365 122.035 7.47695 120.896 7.83916C119.758 8.20136 117.197 9.31385 115.204 10.297C112.902 11.4095 110.522 12.8583 108.737 14.1777C107.158 15.342 104.726 17.4893 103.303 18.9123C101.855 20.3611 100.044 22.405 99.2415 23.4657C98.4395 24.5523 97.2494 26.3375 96.5767 27.4759C95.9041 28.6142 94.8433 30.684 94.2224 32.081C93.5756 33.4781 92.6701 35.9101 92.2044 37.5141C92.0081 38.1548 91.7994 38.9234 91.6046 39.7013C88.5782 41.0041 86.4592 44.0133 86.4592 47.5174C86.4592 52.2149 90.2673 56.023 94.9648 56.023C99.6623 56.023 103.47 52.2149 103.47 47.5174C103.47 44.4483 101.845 41.7589 99.4079 40.2631C99.6529 39.3798 99.9083 38.5426 100.121 37.9539C100.535 36.7638 101.415 34.72 102.062 33.4264C102.708 32.1586 103.821 30.2441 104.545 29.1575C105.27 28.0968 107.158 25.9494 108.737 24.3712C110.573 22.5085 112.488 20.9044 114.17 19.7919C115.593 18.8347 117.688 17.6446 118.827 17.1013C119.965 16.5838 121.698 15.8853 122.707 15.5231C123.69 15.1868 125.553 14.6693 126.847 14.3847C128.373 14.0484 130.572 13.8155 133.315 13.7379C136.393 13.6344 138.075 13.6862 139.912 13.9966C141.257 14.2295 143.379 14.6952 144.621 15.0574C145.863 15.4196 147.958 16.1699 149.278 16.7391C150.597 17.3082 152.77 18.4466 154.09 19.2745L156.496 20.7492C162.576 14.7211 166.638 10.7109 169.458 7.94264L174.554 2.89764C173.261 1.50056 172.588 0.853771 172.2 0.54331ZM169.104 15.9867L174.433 15.2157L175.026 19.3126L163.401 20.9943L157.106 21.9051L161.66 17.4641L175.517 3.95155L178.407 6.91518L169.104 15.9867ZM110.696 82.6998C111.025 82.9597 111.354 83.2196 111.681 83.4813C116.165 87.0597 119.401 88.3314 124.954 89.8174C131.195 91.4876 135.126 91.9041 141.479 90.7225C146.525 89.7841 149.369 88.6593 153.711 85.9381L153.767 85.903C157.334 83.6673 160.096 81.9365 161.908 78.8262C163.73 75.6996 161.908 54.7749 161.908 54.7749H132.631C132.631 54.7749 130.768 55.9225 130.679 57.1024C130.582 58.402 131.408 59.3469 132.631 59.8179C133.436 60.1282 134.843 59.8179 134.843 59.8179H155.272V76.7573L148.376 81.9296V67.0592H134.843C134.843 67.0592 132.216 66.8911 130.679 66.2833C128.621 65.4693 127.515 64.6359 126.125 62.9213C124.884 61.3911 124.383 60.304 123.913 58.3955C123.381 56.2374 123.502 54.8901 123.913 52.706C123.94 52.5609 123.966 52.4214 123.99 52.2865C124.195 51.1663 124.341 50.3666 124.954 49.3439C125.64 48.1982 127.166 47.4043 127.166 47.4043H169.585C169.585 47.4043 170.493 80.3779 169.585 81.9296C168.827 83.2264 166.927 84.8141 164.919 86.4918C164.524 86.8215 164.125 87.1547 163.73 87.4898C163.618 87.5846 163.509 87.6775 163.401 87.7687C161.174 89.659 159.814 90.8136 157.224 92.4035C153.528 94.6724 151.234 95.6849 147.074 96.9293C143.658 97.9514 141.652 98.3149 138.096 98.6103C135.21 98.8502 133.568 98.8173 130.679 98.6103C126.771 98.3303 124.532 98.0837 120.79 96.9293C117.833 96.0171 116.24 95.2643 113.503 93.8259C111.814 92.9381 110.681 92.1742 109.414 91.3199C108.728 90.857 108.002 90.3675 107.127 89.8174C105.841 89.0087 102.967 86.1022 100.488 83.4813C98.1692 81.0288 96.4373 78.316 96.4373 78.316L98.2055 66.2833C98.2055 66.2833 100.047 70.9706 101.792 73.6539C104.477 77.7808 107.592 80.2445 110.696 82.6998Z" fill="white"/>
<path d="M58.8148 133.207H73.5922V155.098C72.4727 155.464 71.3431 155.79 70.2032 156.075C69.0633 156.36 67.8929 156.594 66.692 156.777C65.4911 156.981 64.2291 157.134 62.906 157.235C61.583 157.337 60.1582 157.388 58.6316 157.388C55.4359 157.388 52.6066 156.859 50.1437 155.8C47.6807 154.722 45.6046 153.195 43.9151 151.221C42.2257 149.226 40.9433 146.814 40.0681 143.984C39.1928 141.135 38.7552 137.939 38.7552 134.397C38.7552 130.896 39.2336 127.731 40.1902 124.902C41.1673 122.073 42.5819 119.671 44.4342 117.696C46.2865 115.702 48.5662 114.175 51.2733 113.117C54.0009 112.038 57.105 111.498 60.5856 111.498C62.845 111.498 65.0127 111.722 67.0889 112.17C69.1651 112.618 71.0988 113.269 72.89 114.124L70.6917 119.07C69.9589 118.724 69.1651 118.399 68.3102 118.093C67.4757 117.788 66.6106 117.523 65.715 117.299C64.8194 117.055 63.8932 116.862 62.9366 116.719C62.0003 116.577 61.0639 116.506 60.1276 116.506C57.6444 116.506 55.4461 116.923 53.5327 117.757C51.6194 118.572 50.0114 119.752 48.7087 121.299C47.4263 122.846 46.4493 124.729 45.7776 126.948C45.1059 129.166 44.77 131.67 44.77 134.458C44.77 137.105 45.0448 139.527 45.5944 141.725C46.1643 143.923 47.0599 145.816 48.2812 147.404C49.5025 148.992 51.08 150.223 53.0137 151.098C54.9474 151.974 57.278 152.411 60.0055 152.411C60.9011 152.411 61.7153 152.391 62.4481 152.35C63.2012 152.289 63.8932 152.218 64.5242 152.137C65.1552 152.055 65.7455 151.963 66.2951 151.862C66.865 151.74 67.4146 151.628 67.9438 151.526V138.214H58.8148V133.207ZM110.75 139.954C110.75 142.743 110.404 145.226 109.712 147.404C109.04 149.562 108.063 151.383 106.781 152.869C105.519 154.335 103.982 155.454 102.17 156.228C100.359 157.001 98.3232 157.388 96.0638 157.388C93.9673 157.388 92.0336 157.001 90.2627 156.228C88.4919 155.454 86.9551 154.335 85.6524 152.869C84.37 151.383 83.3625 149.562 82.6297 147.404C81.9173 145.226 81.5611 142.743 81.5611 139.954C81.5611 137.186 81.8969 134.733 82.5687 132.596C83.2607 130.438 84.2377 128.627 85.4997 127.161C86.7617 125.675 88.2985 124.556 90.1101 123.803C91.942 123.029 93.9876 122.643 96.247 122.643C98.3435 122.643 100.277 123.029 102.048 123.803C103.819 124.556 105.346 125.675 106.628 127.161C107.931 128.627 108.938 130.438 109.651 132.596C110.383 134.733 110.75 137.186 110.75 139.954ZM87.3011 139.954C87.3011 144.208 87.9932 147.414 89.3773 149.572C90.7818 151.709 93.0513 152.778 96.1859 152.778C99.3205 152.778 101.57 151.709 102.934 149.572C104.318 147.414 105.01 144.208 105.01 139.954C105.01 135.7 104.307 132.525 102.903 130.428C101.519 128.311 99.2595 127.253 96.1249 127.253C92.9902 127.253 90.7309 128.311 89.3468 130.428C87.983 132.525 87.3011 135.7 87.3011 139.954ZM141.221 156.777L140.396 152.289H140.091C139.582 153.164 138.971 153.928 138.259 154.579C137.567 155.21 136.804 155.739 135.969 156.167C135.135 156.574 134.249 156.879 133.313 157.083C132.377 157.286 131.42 157.388 130.443 157.388C128.591 157.388 126.962 157.154 125.558 156.686C124.153 156.218 122.983 155.485 122.047 154.487C121.11 153.49 120.398 152.218 119.909 150.671C119.441 149.124 119.207 147.282 119.207 145.145V123.253H124.764V144.839C124.764 147.485 125.303 149.47 126.382 150.793C127.461 152.116 129.13 152.778 131.389 152.778C133.038 152.778 134.422 152.513 135.542 151.984C136.661 151.455 137.557 150.681 138.229 149.663C138.921 148.625 139.409 147.353 139.694 145.847C139.999 144.341 140.152 142.611 140.152 140.656V123.253H145.709V156.777H141.221ZM170.898 127.436H163.417V156.777H157.83V127.436H151.907V125.146L157.83 123.07V120.139C157.83 117.961 158.054 116.16 158.502 114.735C158.97 113.29 159.631 112.14 160.486 111.285C161.362 110.43 162.43 109.829 163.692 109.483C164.954 109.117 166.379 108.934 167.967 108.934C169.168 108.934 170.267 109.056 171.264 109.3C172.282 109.524 173.188 109.778 173.981 110.063L172.546 114.368C171.915 114.145 171.223 113.951 170.47 113.788C169.738 113.605 168.964 113.514 168.15 113.514C167.336 113.514 166.633 113.615 166.043 113.819C165.453 114.002 164.964 114.338 164.578 114.826C164.191 115.315 163.896 115.987 163.692 116.842C163.509 117.676 163.417 118.755 163.417 120.078V123.253H170.898V127.436ZM190.163 157.388C187.924 157.388 185.879 157.011 184.027 156.258C182.174 155.505 180.576 154.406 179.233 152.961C177.91 151.516 176.882 149.724 176.149 147.587C175.416 145.45 175.05 143.007 175.05 140.26C175.05 137.491 175.386 135.018 176.058 132.84C176.729 130.662 177.676 128.82 178.897 127.314C180.118 125.787 181.574 124.627 183.263 123.833C184.973 123.04 186.856 122.643 188.912 122.643C190.927 122.643 192.738 123.009 194.346 123.742C195.954 124.454 197.318 125.472 198.438 126.795C199.557 128.098 200.412 129.675 201.002 131.527C201.613 133.359 201.918 135.395 201.918 137.634V141.084H180.79C180.892 145.012 181.716 147.903 183.263 149.755C184.831 151.607 187.151 152.533 190.225 152.533C191.263 152.533 192.219 152.483 193.095 152.381C193.99 152.279 194.845 152.137 195.659 151.953C196.494 151.75 197.298 151.506 198.071 151.221C198.845 150.915 199.628 150.579 200.422 150.213V155.159C199.608 155.546 198.804 155.882 198.01 156.167C197.237 156.452 196.433 156.686 195.598 156.869C194.784 157.052 193.929 157.184 193.033 157.266C192.158 157.347 191.202 157.388 190.163 157.388ZM188.79 127.253C186.469 127.253 184.627 128.047 183.263 129.634C181.92 131.222 181.136 133.532 180.912 136.565H195.934C195.934 135.181 195.792 133.919 195.507 132.779C195.242 131.619 194.814 130.632 194.224 129.818C193.654 129.003 192.922 128.372 192.026 127.925C191.13 127.477 190.052 127.253 188.79 127.253ZM224.878 122.643C225.469 122.643 226.13 122.673 226.863 122.734C227.596 122.775 228.227 122.846 228.756 122.948L228.023 128.077C227.453 127.976 226.863 127.894 226.252 127.833C225.662 127.752 225.102 127.711 224.573 127.711C223.291 127.711 222.12 127.976 221.062 128.505C220.003 129.014 219.087 129.757 218.314 130.734C217.561 131.69 216.971 132.85 216.543 134.214C216.136 135.558 215.932 137.054 215.932 138.702V156.777H210.376V123.253H214.894L215.566 129.39H215.81C216.319 128.515 216.859 127.67 217.429 126.856C218.019 126.042 218.67 125.329 219.383 124.719C220.115 124.088 220.93 123.589 221.825 123.223C222.721 122.836 223.738 122.643 224.878 122.643Z" fill="white"/>
<path d="M0.25 173H264.75" stroke="white" stroke-width="2"/>
</svg>
