<svg width="42" height="13" viewBox="0 0 42 13" fill="none" xmlns="http://www.w3.org/2000/svg">
<path fill-rule="evenodd" clip-rule="evenodd" d="M11.0205 0.0698414L10.9341 0L10.7345 0.186243C10.6248 0.289342 10.239 0.655177 9.88311 0.997731L9.23126 1.61965C9.03836 1.49992 8.8754 1.41013 8.74902 1.34694C8.61932 1.28375 8.37321 1.17732 8.20027 1.11081C8.024 1.04762 7.73466 0.957822 7.55174 0.911261C7.36882 0.8647 7.09944 0.811488 6.9531 0.788207C6.78349 0.764927 6.43761 0.75495 6.00526 0.764927C5.47979 0.77823 5.25031 0.798185 5.00753 0.851397C4.83126 0.891307 4.57185 0.961148 4.42552 1.00771C4.27918 1.05427 3.94993 1.19728 3.69385 1.32366C3.39786 1.46666 3.09188 1.65291 2.86241 1.82252C2.65953 1.97218 2.34691 2.24822 2.16399 2.43114C1.97775 2.61738 1.74495 2.88012 1.64185 3.01647C1.53875 3.15616 1.38576 3.38563 1.29929 3.53197C1.21282 3.6783 1.07647 3.94436 0.996649 4.12396C0.913505 4.30355 0.797103 4.61617 0.737239 4.82237C0.711922 4.90498 0.685004 5.00414 0.659906 5.10445C0.271675 5.27228 0 5.65868 0 6.10854C0 6.71239 0.489521 7.20192 1.09338 7.20192C1.69723 7.20192 2.18675 6.71239 2.18675 6.10854C2.18675 5.71353 1.97728 5.36744 1.66336 5.1753C1.69481 5.06192 1.72759 4.95448 1.75492 4.8789C1.80814 4.72592 1.92121 4.46318 2.00436 4.29689C2.0875 4.13393 2.23051 3.88783 2.32363 3.74814C2.41675 3.61179 2.65953 3.33575 2.86241 3.13288C3.09854 2.89342 3.34464 2.68722 3.56082 2.54421C3.74373 2.42116 4.01312 2.26818 4.15946 2.19833C4.30579 2.13182 4.52862 2.04202 4.65832 1.99546C4.7847 1.95223 5.02416 1.88571 5.19045 1.84913C5.38667 1.80589 5.66936 1.77596 6.02189 1.76598C6.41765 1.75268 6.63383 1.75933 6.86996 1.79924C7.0429 1.82917 7.31561 1.88904 7.47525 1.9356C7.63488 1.98216 7.90427 2.07861 8.07389 2.15177C8.2435 2.22494 8.52287 2.37127 8.69248 2.4777L9.00178 2.66727C9.78333 1.89236 10.3055 1.37687 10.668 1.02101L11.3232 0.372486C11.1569 0.192895 11.0704 0.109751 11.0205 0.0698414ZM10.6253 2.05449L11.3103 1.95538L11.3865 2.48202L9.89224 2.69821L9.08297 2.81529L9.66839 2.24441L11.4496 0.507396L11.8212 0.888366L10.6253 2.05449ZM3.1176 10.631C3.15984 10.6644 3.20208 10.6978 3.24423 10.7315C3.82053 11.1915 4.23661 11.3549 4.95036 11.546C5.75263 11.7607 6.258 11.8142 7.07467 11.6623C7.7233 11.5417 8.08883 11.3971 8.647 11.0473L8.65421 11.0428C9.1128 10.7554 9.46783 10.5329 9.70079 10.1331C9.93496 9.73115 9.70079 7.04131 9.70079 7.04131H5.93725C5.93725 7.04131 5.69774 7.18884 5.68635 7.34052C5.6738 7.50758 5.78007 7.62904 5.93725 7.68958C6.04079 7.72947 6.2216 7.68958 6.2216 7.68958H8.84772V9.86711L7.9612 10.532V8.62043H6.2216C6.2216 8.62043 5.88395 8.59883 5.68635 8.5207C5.42171 8.41606 5.27957 8.30893 5.10091 8.08852C4.94146 7.89182 4.87701 7.75207 4.81655 7.50674C4.74817 7.22932 4.76376 7.05612 4.81655 6.77536C4.82006 6.75671 4.82334 6.73878 4.82651 6.72144C4.85284 6.57744 4.87165 6.47464 4.95036 6.34318C5.03856 6.19589 5.23472 6.09384 5.23472 6.09384H10.6877C10.6877 6.09384 10.8043 10.3325 10.6877 10.532C10.5902 10.6987 10.3459 10.9028 10.0877 11.1185C10.037 11.1609 9.98575 11.2037 9.93496 11.2468C9.9206 11.2589 9.90653 11.2709 9.89272 11.2826C9.60643 11.5256 9.43157 11.674 9.09862 11.8784C8.6235 12.1701 8.32868 12.3002 7.79393 12.4602C7.35474 12.5916 7.09684 12.6383 6.63978 12.6763C6.26873 12.7071 6.05772 12.7029 5.68635 12.6763C5.18399 12.6403 4.89612 12.6086 4.4151 12.4602C4.03502 12.3429 3.83022 12.2461 3.4784 12.0613C3.26125 11.9471 3.11564 11.8489 2.9528 11.7391C2.86457 11.6796 2.77127 11.6167 2.65879 11.546C2.49343 11.442 2.12395 11.0684 1.80537 10.7315C1.50726 10.4162 1.28463 10.0675 1.28463 10.0675L1.51193 8.5207C1.51193 8.5207 1.74859 9.12325 1.97299 9.46817C2.31812 9.99868 2.71853 10.3154 3.1176 10.631Z" fill="#FDFFFD"/>
<path d="M18.6729 7.91367C18.6729 8.62507 18.5846 9.25858 18.4081 9.8142C18.2367 10.3646 17.9875 10.8294 17.6603 11.2084C17.3384 11.5823 16.9463 11.8679 16.4842 12.0652C16.022 12.2626 15.5027 12.3612 14.9264 12.3612C14.3915 12.3612 13.8982 12.2626 13.4464 12.0652C12.9947 11.8679 12.6026 11.5823 12.2703 11.2084C11.9432 10.8294 11.6861 10.3646 11.4992 9.8142C11.3174 9.25858 11.2266 8.62507 11.2266 7.91367C11.2266 7.20746 11.3122 6.58174 11.4836 6.03651C11.6602 5.48608 11.9094 5.02393 12.2313 4.65006C12.5533 4.27099 12.9453 3.98539 13.4075 3.79327C13.8748 3.59594 14.3967 3.49728 14.9731 3.49728C15.5079 3.49728 16.0012 3.59594 16.453 3.79327C16.9048 3.98539 17.2942 4.27099 17.6214 4.65006C17.9537 5.02393 18.2107 5.48608 18.3925 6.03651C18.5794 6.58174 18.6729 7.20746 18.6729 7.91367ZM12.6909 7.91367C12.6909 8.99894 12.8675 9.81679 13.2206 10.3672C13.5789 10.9125 14.1578 11.1851 14.9575 11.1851C15.7572 11.1851 16.331 10.9125 16.6789 10.3672C17.032 9.81679 17.2085 8.99894 17.2085 7.91367C17.2085 6.8284 17.0294 6.01834 16.6711 5.48349C16.318 4.94345 15.7416 4.67343 14.9419 4.67343C14.1423 4.67343 13.5659 4.94345 13.2128 5.48349C12.8649 6.01834 12.6909 6.8284 12.6909 7.91367Z" fill="#FDFFFD"/>
<path d="M24.6916 12.2054L24.4813 11.0604H24.4034C24.2736 11.2837 24.1178 11.4785 23.9361 11.6446C23.7596 11.8056 23.5648 11.9406 23.3519 12.0497C23.139 12.1535 22.9131 12.2314 22.6743 12.2833C22.4354 12.3353 22.1914 12.3612 21.9421 12.3612C21.4696 12.3612 21.0542 12.3015 20.6959 12.1821C20.3376 12.0626 20.039 11.8757 19.8001 11.6213C19.5613 11.3668 19.3795 11.0423 19.2549 10.6476C19.1355 10.253 19.0757 9.78304 19.0757 9.23781V4.84479L20.4933 3.65306V9.15992C20.4933 9.83497 20.631 10.3413 20.9062 10.6788C21.1814 11.0163 21.6072 11.1851 22.1836 11.1851C22.6042 11.1851 22.9573 11.1176 23.2429 10.9826C23.5285 10.8475 23.757 10.6502 23.9283 10.3906C24.1049 10.1258 24.2295 9.80122 24.3022 9.41696C24.3801 9.0327 24.419 8.59132 24.419 8.09282V3.65306L25.8078 4.08525L25.8366 12.2054H24.6916Z" fill="#FDFFFD"/>
<path d="M30.5079 4.72016H28.5996V12.2054H27.1742V4.72016H25.6631V4.13598L27.1742 3.60633V2.85858C27.1742 2.30296 27.2313 1.84341 27.3455 1.47992C27.465 1.11124 27.6337 0.81785 27.8518 0.599756C28.0751 0.381663 28.3477 0.228479 28.6697 0.140203C28.9916 0.0467343 29.3551 0 29.7601 0C30.0665 0 30.3469 0.0311562 30.6013 0.0934685C30.861 0.150588 31.0921 0.215497 31.2946 0.288195L30.9285 1.38645C30.7675 1.32933 30.591 1.28 30.3988 1.23846C30.2119 1.19172 30.0146 1.16836 29.8069 1.16836C29.5992 1.16836 29.42 1.19432 29.2694 1.24625C29.1188 1.29298 28.9942 1.37866 28.8955 1.50329C28.7969 1.62791 28.7216 1.79927 28.6697 2.01736C28.6229 2.23026 28.5996 2.50548 28.5996 2.843V3.65306H30.5079V4.72016Z" fill="#FDFFFD"/>
<path d="M33.668 12.3612C33.0969 12.3612 32.575 12.2652 32.1025 12.073C31.6299 11.8809 31.2223 11.6005 30.8796 11.2318C30.542 10.8631 30.2798 10.4062 30.0929 9.86093C29.9059 9.3157 29.8125 8.69257 29.8125 7.99156C29.8125 7.28535 29.8981 6.65444 30.0695 6.09882C30.2409 5.5432 30.4823 5.07326 30.7939 4.68901C31.1055 4.29955 31.4767 4.00357 31.9077 3.80105C32.3439 3.59854 32.8242 3.49728 33.3487 3.49728C33.8628 3.49728 34.3249 3.59075 34.7351 3.77769C35.1454 3.95943 35.4933 4.21907 35.7789 4.55659C36.0645 4.88892 36.2826 5.29136 36.4332 5.76389C36.5889 6.23124 36.6668 6.75051 36.6668 7.3217V8.20186H31.2768C31.3028 9.20405 31.5131 9.94142 31.9077 10.414C32.3076 10.8865 32.8995 11.1228 33.6836 11.1228C33.9485 11.1228 34.1925 11.1098 34.4158 11.0838C34.6443 11.0578 34.8624 11.0215 35.0701 10.9748C35.283 10.9228 35.4881 10.8605 35.6854 10.7878C35.8827 10.7099 36.0827 10.6243 36.2852 10.5308V11.7926C36.0775 11.8913 35.8723 11.977 35.6698 12.0497C35.4725 12.1224 35.2674 12.1821 35.0545 12.2288C34.8468 12.2755 34.6287 12.3093 34.4002 12.3301C34.1769 12.3508 33.9329 12.3612 33.668 12.3612ZM33.3175 4.67343C32.7256 4.67343 32.2556 4.87594 31.9077 5.28097C31.565 5.686 31.3651 6.27537 31.308 7.04909H35.1402C35.1402 6.69598 35.1038 6.37404 35.0311 6.08324C34.9636 5.78726 34.8546 5.53541 34.704 5.32771C34.5586 5.12 34.3717 4.95903 34.1432 4.84479C33.9147 4.73055 33.6395 4.67343 33.3175 4.67343Z" fill="#FDFFFD"/>
<path d="M40.7695 3.49728C40.9201 3.49728 41.0888 3.50507 41.2758 3.52065C41.4627 3.53103 41.6237 3.54921 41.7587 3.57517L41.5717 4.88373C41.4264 4.85777 41.2758 4.837 41.12 4.82142C40.9694 4.80065 40.8266 4.79026 40.6916 4.79026C40.3644 4.79026 40.0659 4.85777 39.7958 4.99278C39.5258 5.1226 39.2922 5.31213 39.0948 5.56138C38.9027 5.80544 38.7521 6.10142 38.6431 6.44933C38.5392 6.79205 38.4873 7.17371 38.4873 7.59432V12.2054H37.0697V3.65306H38.2225L38.3938 5.21866H38.4561C38.5859 4.99537 38.7236 4.77988 38.8689 4.57217C39.0195 4.36446 39.1857 4.18272 39.3674 4.02694C39.5544 3.86596 39.7621 3.73874 39.9906 3.64527C40.219 3.54661 40.4787 3.49728 40.7695 3.49728Z" fill="#FDFFFD"/>
</svg>
