<svg width="16" height="16" viewBox="0 0 16 16" fill="none" xmlns="http://www.w3.org/2000/svg">
<path d="M7.58333 15.875V14.6575C5.84722 14.4947 4.41389 13.8481 3.28333 12.7175C2.15222 11.5864 1.50556 10.1528 1.34333 8.41667H0.125V7.58333H1.34333C1.50556 5.84722 2.15222 4.41389 3.28333 3.28333C4.41444 2.15278 5.84778 1.50611 7.58333 1.34333V0.125H8.41667V1.34333C10.1528 1.50556 11.5861 2.15222 12.7167 3.28333C13.8472 4.41444 14.4942 5.84778 14.6575 7.58333H15.875V8.41667H14.6575C14.4947 10.1528 13.8481 11.5861 12.7175 12.7167C11.5864 13.8478 10.1528 14.4947 8.41667 14.6575V15.875H7.58333ZM8 13.8333C9.61111 13.8333 10.9861 13.2639 12.125 12.125C13.2639 10.9861 13.8333 9.61111 13.8333 8C13.8333 6.38889 13.2639 5.01389 12.125 3.875C10.9861 2.73611 9.61111 2.16667 8 2.16667C6.38889 2.16667 5.01389 2.73611 3.875 3.875C2.73611 5.01389 2.16667 6.38889 2.16667 8C2.16667 9.61111 2.73611 10.9861 3.875 12.125C5.01389 13.2639 6.38889 13.8333 8 13.8333ZM8 10.5C7.31278 10.5 6.72417 10.2553 6.23417 9.76583C5.74417 9.27639 5.49944 8.68778 5.5 8C5.50056 7.31222 5.74528 6.72361 6.23417 6.23417C6.72305 5.74472 7.31167 5.5 8 5.5C8.68833 5.5 9.27694 5.74472 9.76583 6.23417C10.2547 6.72361 10.4994 7.31222 10.5 8C10.5006 8.68778 10.2558 9.27639 9.76583 9.76583C9.27583 10.2553 8.68722 10.5 8 10.5ZM8 9.66667C8.45833 9.66667 8.85083 9.50361 9.1775 9.1775C9.50417 8.85139 9.66722 8.45889 9.66667 8C9.66611 7.54111 9.50306 7.14889 9.1775 6.82333C8.85194 6.49778 8.45944 6.33444 8 6.33333C7.54056 6.33222 7.14833 6.49556 6.82333 6.82333C6.49833 7.15111 6.335 7.54333 6.33333 8C6.33167 8.45667 6.495 8.84917 6.82333 9.1775C7.15167 9.50583 7.54389 9.66889 8 9.66667Z" fill="#007F00"/>
</svg>
