<svg width="19" height="18" viewBox="0 0 19 18" fill="none" xmlns="http://www.w3.org/2000/svg">
<path d="M11.75 13.2187C11.6948 14.6077 10.5373 15.787 8.9867 15.7491C8.62595 15.7402 8.18007 15.6145 7.28834 15.363C5.14221 14.7576 3.27916 13.7402 2.83217 11.4611C2.75 11.0422 2.75 10.5708 2.75 9.62797V8.37202C2.75 7.42921 2.75 6.95779 2.83217 6.53884C3.27916 4.25974 5.14221 3.24237 7.28834 2.63702C8.18007 2.38548 8.62595 2.25971 8.9867 2.25089C10.5373 2.21296 11.6948 3.3923 11.75 4.78126" stroke="#007F00" stroke-width="1.125" stroke-linecap="round"/>
<path d="M16.25 9H8M16.25 9C16.25 8.47485 14.7543 7.49365 14.375 7.125M16.25 9C16.25 9.52515 14.7543 10.5064 14.375 10.875" stroke="#007F00" stroke-width="1.125" stroke-linecap="round" stroke-linejoin="round"/>
</svg>
