<svg width="20" height="19" viewBox="0 0 20 19" fill="none" xmlns="http://www.w3.org/2000/svg">
<path d="M19.0011 5.99992C19.0011 14.1801 10.0011 17.9999 10.0011 17.9999C10.0011 17.9999 1.00107 14.2199 1.00107 5.99992C0.943716 4.74238 1.38366 3.5128 2.22577 2.57709C3.06788 1.64139 4.24446 1.07476 5.50107 0.999756C6.75768 1.07476 7.93427 1.64139 8.77638 2.57709C9.61849 3.5128 10.0584 4.74238 10.0011 5.99992C9.94372 4.74238 10.3837 3.5128 11.2258 2.57709C12.0679 1.64139 13.2445 1.07476 14.5011 0.999756C15.7577 1.07476 16.9343 1.64139 17.7764 2.57709C18.6185 3.5128 19.0584 4.74238 19.0011 5.99992Z" fill="#E6F2E6" stroke="#E7E0EC" stroke-linecap="round" stroke-linejoin="round"/>
</svg>
