<svg width="100" height="100" viewBox="0 0 100 100" fill="none" xmlns="http://www.w3.org/2000/svg">
<circle cx="50" cy="50" r="50" fill="url(#paint0_linear_126_11229)"/>
<path d="M66.6574 16.7617L55.7757 20.3887V51.358L57.7288 50.8697V27.4894L66.6574 24.6992V16.7617ZM74.735 31.9076L60.24 35.531V52.8301L54.8249 54.1837L53.2647 54.5739V37.2748L43.2045 39.7899C43.9265 40.3404 44.5585 41.0204 45.0897 41.7881C46.5057 43.8329 47.3623 46.4865 47.9395 49.3714C48.9691 54.5193 49.0634 60.3633 49.073 64.7525L82.2778 56.4512C82.2718 52.0273 82.198 45.9699 81.191 40.9354C80.6521 38.2401 79.835 35.8712 78.7394 34.2892C77.6702 32.7446 76.478 31.9455 74.7352 31.9078L74.735 31.9076ZM38.8951 40.8285C37.0293 40.8285 35.7963 41.5554 34.7224 42.9277C33.6482 44.3002 32.8429 46.3686 32.3083 48.774C32.1905 49.3087 32.0865 49.8464 31.9964 50.3864L44.9857 47.7885V47.7882C44.8641 47.3464 44.7295 46.9083 44.5821 46.4745L44.5798 46.4675L44.5742 46.4515C44.5085 46.26 44.4396 46.0697 44.3678 45.8804L44.3468 45.8244C44.2754 45.6367 44.2007 45.4502 44.1227 45.2652C44.1162 45.2501 44.1094 45.2356 44.1031 45.2206C44.0342 45.0598 43.9623 44.9003 43.8877 44.7421L43.8333 44.6268C43.8097 44.5775 43.7858 44.5286 43.7616 44.4801C43.7223 44.4011 43.6822 44.3226 43.6412 44.2446C43.6291 44.222 43.6175 44.1985 43.6056 44.1762C43.5516 44.0753 43.496 43.9754 43.4388 43.8763C43.422 43.8472 43.4053 43.8191 43.3886 43.7906C43.3294 43.6896 43.2684 43.5897 43.2055 43.4909C43.1469 43.3985 43.0866 43.3072 43.0246 43.2171C41.9292 41.6345 40.7087 40.8281 38.8951 40.8281V40.8285ZM42.5639 50.8341L30.3258 53.2817L36.4449 55.365L42.5639 50.8341ZM45.7761 51.5799L36.8813 58.1662L26.7578 54.7197V64.2527L46.5133 60.8467C46.4349 57.8514 46.2419 54.5897 45.7761 51.5802V51.5799ZM46.5518 63.3876L41.3519 64.2842L46.5609 64.9354C46.5595 64.4382 46.5567 63.9178 46.5519 63.3874L46.5518 63.3876ZM64.4254 63.5024L60.2401 64.5487V83.2391H64.4254V63.5024ZM32.8436 65.7513L24.2471 67.2337V66.3112C22.2345 66.945 20.4723 67.8312 19.2979 68.7443C18.1898 69.6064 17.7351 70.4692 17.7242 70.7647C17.7186 70.9125 17.7228 70.9728 17.9045 71.1627C18.0788 71.345 18.4781 71.6044 19.134 71.8337C30.2354 73.655 36.435 70.7656 43.5954 67.0951L32.8436 65.7513Z" fill="white"/>
<defs>
<linearGradient id="paint0_linear_126_11229" x1="42.2095" y1="-14.949" x2="131.333" y2="56.1905" gradientUnits="userSpaceOnUse">
<stop stop-color="#008307"/>
<stop offset="0.25" stop-color="#14971B"/>
<stop offset="0.5" stop-color="#28AB2F"/>
<stop offset="0.75" stop-color="#3CBF43"/>
<stop offset="1" stop-color="#50D357"/>
</linearGradient>
</defs>
</svg>
