<svg width="19" height="18" viewBox="0 0 19 18" fill="none" xmlns="http://www.w3.org/2000/svg">
<path d="M7.87205 15.6679C4.7348 15.4594 2.2358 12.9249 2.03015 9.74318C1.98995 9.12053 1.98995 8.47568 2.03015 7.85303C2.2358 4.67129 4.7348 2.13685 7.87205 1.9283C8.94238 1.85716 10.0598 1.85731 11.128 1.9283C14.2652 2.13685 16.7642 4.67129 16.9698 7.85303C17.0101 8.47568 17.0101 9.12053 16.9698 9.74318C16.8949 10.902 16.3824 11.975 15.7791 12.881C15.4287 13.5152 15.6599 14.3069 16.0248 14.9984C16.2879 15.497 16.4195 15.7462 16.3139 15.9263C16.2082 16.1064 15.9723 16.1122 15.5004 16.1236C14.5672 16.1464 13.938 15.8818 13.4385 15.5135C13.1552 15.3046 13.0135 15.2001 12.9159 15.1881C12.8183 15.1761 12.6262 15.2552 12.242 15.4135C11.8967 15.5557 11.4958 15.6434 11.128 15.6679C10.0598 15.7389 8.94238 15.739 7.87205 15.6679Z" stroke="#007F00" stroke-width="1.125" stroke-linejoin="round"/>
<path d="M9.50334 9H9.49667M6.50672 9H6.49997M12.5 9H12.4933" stroke="#007F00" stroke-width="1.5" stroke-linecap="round" stroke-linejoin="round"/>
</svg>
