<svg width="19" height="18" viewBox="0 0 19 18" fill="none" xmlns="http://www.w3.org/2000/svg">
<path d="M2.39744 11.0772C2.23795 12.1227 2.951 12.8484 3.82404 13.21C7.17111 14.5966 11.8289 14.5966 15.1759 13.21C16.049 12.8484 16.762 12.1227 16.6026 11.0772C16.5046 10.4347 16.0199 9.89963 15.6608 9.37718C15.1905 8.68448 15.1438 7.92885 15.1437 7.125C15.1437 4.0184 12.6169 1.5 9.5 1.5C6.3831 1.5 3.85635 4.0184 3.85635 7.125C3.85627 7.92885 3.80954 8.68448 3.33921 9.37718C2.98013 9.89963 2.49546 10.4347 2.39744 11.0772Z" stroke="#007F00" stroke-width="1.125" stroke-linecap="round" stroke-linejoin="round"/>
<path d="M6.5 14.25C6.84387 15.5439 8.05663 16.5 9.5 16.5C10.9434 16.5 12.1561 15.5439 12.5 14.25" stroke="#007F00" stroke-width="1.125" stroke-linecap="round" stroke-linejoin="round"/>
</svg>
