<svg width="25" height="24" viewBox="0 0 25 24" fill="none" xmlns="http://www.w3.org/2000/svg">
<path d="M3.2184 14.7696C3.00575 16.1636 3.95648 17.1312 5.12053 17.6134C9.58329 19.4622 15.7937 19.4622 20.2564 17.6134C21.4205 17.1312 22.3712 16.1636 22.1586 14.7696C22.0279 13.9129 21.3817 13.1995 20.9029 12.5029C20.2758 11.5793 20.2135 10.5718 20.2134 9.5C20.2134 5.35786 16.8444 2 12.6885 2C8.53261 2 5.16361 5.35786 5.16361 9.5C5.16351 10.5718 5.1012 11.5793 4.47409 12.5029C3.99532 13.1995 3.34909 13.9129 3.2184 14.7696Z" stroke="#49454F" stroke-width="1.5" stroke-linecap="round" stroke-linejoin="round"/>
<path d="M8.68848 19C9.14697 20.7252 10.764 22 12.6885 22C14.613 22 16.23 20.7252 16.6885 19" stroke="#49454F" stroke-width="1.5" stroke-linecap="round" stroke-linejoin="round"/>
</svg>
