<svg width="18" height="18" viewBox="0 0 18 18" fill="none" xmlns="http://www.w3.org/2000/svg">
<path d="M12 16.5C11.2005 15.5665 10.1503 15 9 15C7.84973 15 6.79952 15.5665 6 16.5" stroke="#007F00" stroke-width="1.125" stroke-linecap="round"/>
<path d="M9 9.75C8.04893 9.75 7.04332 9.91448 6.25502 10.1346C5.66144 10.3004 5.18396 11.0561 5.25749 11.6697C5.28474 11.897 5.48048 12 5.6863 12H12.3137C12.5195 12 12.7153 11.897 12.7425 11.6697C12.8161 11.0561 12.3386 10.3004 11.745 10.1346C10.9567 9.91448 9.95108 9.75 9 9.75Z" stroke="#007F00" stroke-width="1.125" stroke-linecap="round"/>
<path d="M15.75 7.5C14.9216 7.5 14.25 8.17155 14.25 9V9.75C14.25 10.5784 13.5784 11.25 12.75 11.25" stroke="#007F00" stroke-width="1.125" stroke-linecap="round" stroke-linejoin="round"/>
<path d="M2.25 7.5C3.07843 7.5 3.75 8.17155 3.75 9V9.75C3.75 10.5784 4.42157 11.25 5.25 11.25" stroke="#007F00" stroke-width="1.125" stroke-linecap="round" stroke-linejoin="round"/>
<path d="M9 12V16.5" stroke="#007F00" stroke-width="1.125" stroke-linecap="round" stroke-linejoin="round"/>
<path d="M9.61478 7.5H8.38523C7.33358 7.5 6.80778 7.5 6.42741 7.18231C6.04704 6.86462 5.91951 6.31894 5.66446 5.2276C5.26344 3.51171 5.06294 2.65376 5.48399 2.07689C5.90506 1.5 6.73177 1.5 8.38523 1.5H9.61478C11.2682 1.5 12.095 1.5 12.516 2.07689C12.9371 2.65376 12.7366 3.51171 12.3356 5.2276C12.0805 6.31894 11.953 6.86462 11.5726 7.18231C11.1923 7.5 10.6664 7.5 9.61478 7.5Z" stroke="#007F00" stroke-width="1.125" stroke-linecap="round" stroke-linejoin="round"/>
<path d="M9 7.5V9.75" stroke="#007F00" stroke-width="1.125" stroke-linecap="round" stroke-linejoin="round"/>
</svg>
