<svg width="20" height="24" viewBox="0 0 20 24" fill="none" xmlns="http://www.w3.org/2000/svg">
<g clip-path="url(#clip0_1426_34918)">
<path d="M15.142 1.28571C17.0228 4.54326 18.0129 8.23849 18.0129 12C18.0129 15.7615 17.0228 19.4567 15.142 22.7143M10.4277 3.64285C11.8947 6.18374 12.667 9.06602 12.667 12C12.667 14.934 11.8947 17.8162 10.4277 20.3571M5.92773 5.80713C6.98848 7.66394 7.54691 9.77022 7.54691 11.9143C7.54691 14.0583 6.98848 16.1646 5.92773 18.0214M1.42773 8.14285C2.1922 9.29983 2.59749 10.6362 2.59749 12C2.59749 13.3638 2.1922 14.7002 1.42773 15.8571" stroke="white" stroke-width="2.57143" stroke-linecap="round"/>
</g>
<defs>
<clipPath id="clip0_1426_34918">
<rect width="20" height="24" fill="white"/>
</clipPath>
</defs>
</svg>
