<svg width="309" height="256" viewBox="0 0 309 256" fill="none" xmlns="http://www.w3.org/2000/svg">
<g clip-path="url(#clip0_1415_38347)">
<path d="M182.38 0H92.7032C78.7558 0 67.4492 11.3066 67.4492 25.254V230.174C67.4492 244.122 78.7558 255.428 92.7032 255.428H182.38C196.327 255.428 207.634 244.122 207.634 230.174V25.254C207.634 11.3066 196.327 0 182.38 0Z" fill="#3F3D56"/>
<path d="M205.271 25.2559V230.175C205.264 236.243 202.85 242.061 198.559 246.353C194.268 250.644 188.45 253.057 182.381 253.064H92.7061C86.6375 253.057 80.8195 250.644 76.5284 246.353C72.2373 242.061 69.8234 236.243 69.8164 230.175V25.2559C69.8234 19.1873 72.2373 13.3693 76.5284 9.0782C80.8195 4.78708 86.6375 2.37324 92.7061 2.36621H104.433V6.41695C104.433 8.25079 105.161 10.0095 106.458 11.3062C107.755 12.6029 109.513 13.3315 111.347 13.3316H163.74C165.574 13.3315 167.333 12.6029 168.629 11.3062C169.926 10.0095 170.655 8.25079 170.655 6.41695V2.36621H182.381C188.45 2.37324 194.268 4.78708 198.559 9.0782C202.85 13.3693 205.264 19.1873 205.271 25.2559Z" fill="white"/>
<path d="M66.806 51.8167C66.35 51.8162 65.9128 51.6348 65.5903 51.3124C65.2678 50.9899 65.0865 50.5527 65.0859 50.0967V46.6566C65.0859 46.2004 65.2672 45.7629 65.5897 45.4403C65.9123 45.1177 66.3498 44.9365 66.806 44.9365C67.2622 44.9365 67.6997 45.1177 68.0223 45.4403C68.3448 45.7629 68.5261 46.2004 68.5261 46.6566V50.0967C68.5255 50.5527 68.3441 50.9899 68.0217 51.3124C67.6992 51.6348 67.262 51.8162 66.806 51.8167Z" fill="#3F3D56"/>
<path d="M66.806 69.4565C66.35 69.456 65.9128 69.2746 65.5903 68.9522C65.2678 68.6297 65.0865 68.1925 65.0859 67.7365V58.2669C65.0859 57.8107 65.2672 57.3732 65.5897 57.0507C65.9123 56.7281 66.3498 56.5469 66.806 56.5469C67.2622 56.5469 67.6997 56.7281 68.0223 57.0507C68.3448 57.3732 68.5261 57.8107 68.5261 58.2669V67.7365C68.5255 68.1925 68.3441 68.6297 68.0217 68.9522C67.6992 69.2746 67.262 69.456 66.806 69.4565Z" fill="#3F3D56"/>
<path d="M66.806 83.6377C66.35 83.6372 65.9128 83.4558 65.5903 83.1333C65.2678 82.8109 65.0865 82.3737 65.0859 81.9176V72.4481C65.0859 71.9919 65.2672 71.5544 65.5897 71.2318C65.9123 70.9092 66.3498 70.728 66.806 70.728C67.2622 70.728 67.6997 70.9092 68.0223 71.2318C68.3448 71.5544 68.5261 71.9919 68.5261 72.4481V81.9176C68.5255 82.3737 68.3441 82.8109 68.0217 83.1333C67.6992 83.4558 67.262 83.6372 66.806 83.6377Z" fill="#3F3D56"/>
<path d="M207.851 75.8973C207.395 75.8968 206.958 75.7154 206.635 75.3929C206.313 75.0705 206.131 74.6333 206.131 74.1773V51.0711C206.131 50.6149 206.312 50.1774 206.635 49.8549C206.957 49.5323 207.395 49.3511 207.851 49.3511C208.307 49.3511 208.745 49.5323 209.067 49.8549C209.39 50.1774 209.571 50.6149 209.571 51.0711V74.1773C209.57 74.6333 209.389 75.0705 209.067 75.3929C208.744 75.7154 208.307 75.8968 207.851 75.8973Z" fill="#3F3D56"/>
<path d="M141.238 7.88884H127.907C127.622 7.88884 127.349 7.77558 127.147 7.57397C126.945 7.37236 126.832 7.09892 126.832 6.8138C126.832 6.52869 126.945 6.25525 127.147 6.05364C127.349 5.85203 127.622 5.73877 127.907 5.73877H141.238C141.523 5.73877 141.796 5.85203 141.998 6.05364C142.199 6.25525 142.313 6.52869 142.313 6.8138C142.313 7.09892 142.199 7.37236 141.998 7.57397C141.796 7.77558 141.523 7.88884 141.238 7.88884Z" fill="white"/>
<path d="M148.118 7.67391C148.593 7.67391 148.978 7.28887 148.978 6.81389C148.978 6.33891 148.593 5.95386 148.118 5.95386C147.643 5.95386 147.258 6.33891 147.258 6.81389C147.258 7.28887 147.643 7.67391 148.118 7.67391Z" fill="white"/>
<path d="M99.3073 12.5018H87.6969C87.1267 12.5018 86.5798 12.2753 86.1766 11.8721C85.7734 11.4688 85.5469 10.922 85.5469 10.3517C85.5469 9.7815 85.7734 9.23462 86.1766 8.8314C86.5798 8.42818 87.1267 8.20166 87.6969 8.20166H99.3073C99.8776 8.20166 100.424 8.42818 100.828 8.8314C101.231 9.23462 101.457 9.7815 101.457 10.3517C101.457 10.922 101.231 11.4688 100.828 11.8721C100.424 12.2753 99.8776 12.5018 99.3073 12.5018Z" fill="#E6E6E6"/>
<path d="M143.348 102.642H131.738C131.168 102.642 130.621 102.416 130.218 102.013C129.814 101.609 129.588 101.063 129.588 100.492C129.588 99.9221 129.814 99.3752 130.218 98.972C130.621 98.5688 131.168 98.3423 131.738 98.3423H143.348C143.919 98.3423 144.465 98.5688 144.869 98.972C145.272 99.3752 145.498 99.9221 145.498 100.492C145.498 101.063 145.272 101.609 144.869 102.013C144.465 102.416 143.919 102.642 143.348 102.642Z" fill="#E6E6E6"/>
<path d="M175.421 12.2871C176.49 12.2871 177.356 11.4208 177.356 10.3521C177.356 9.28335 176.49 8.41699 175.421 8.41699C174.353 8.41699 173.486 9.28335 173.486 10.3521C173.486 11.4208 174.353 12.2871 175.421 12.2871Z" fill="#E6E6E6"/>
<path d="M181.441 12.2871C182.51 12.2871 183.376 11.4208 183.376 10.3521C183.376 9.28335 182.51 8.41699 181.441 8.41699C180.372 8.41699 179.506 9.28335 179.506 10.3521C179.506 11.4208 180.372 12.2871 181.441 12.2871Z" fill="#E6E6E6"/>
<path d="M187.46 12.2871C188.529 12.2871 189.396 11.4208 189.396 10.3521C189.396 9.28335 188.529 8.41699 187.46 8.41699C186.392 8.41699 185.525 9.28335 185.525 10.3521C185.525 11.4208 186.392 12.2871 187.46 12.2871Z" fill="#E6E6E6"/>
<path d="M174.654 132.743H94.3564C92.289 132.741 90.307 131.918 88.8451 130.457C87.3832 128.995 86.5609 127.013 86.5586 124.945V116.89C86.5609 114.823 87.3832 112.841 88.8451 111.379C90.307 109.917 92.289 109.095 94.3564 109.092H174.654C176.721 109.095 178.703 109.917 180.165 111.379C181.627 112.841 182.449 114.823 182.452 116.89V124.945C182.449 127.013 181.627 128.995 180.165 130.457C178.703 131.918 176.721 132.741 174.654 132.743ZM94.3564 109.952C92.517 109.954 90.7536 110.686 89.453 111.987C88.1523 113.287 87.4207 115.051 87.4186 116.89V124.945C87.4207 126.785 88.1523 128.548 89.453 129.849C90.7536 131.149 92.517 131.881 94.3564 131.883H174.654C176.493 131.881 178.257 131.149 179.557 129.849C180.858 128.548 181.59 126.785 181.592 124.945V116.89C181.59 115.051 180.858 113.287 179.557 111.987C178.257 110.686 176.493 109.954 174.654 109.952H94.3564Z" fill="#E6E6E6"/>
<path d="M143.348 162.414H131.738C131.168 162.414 130.621 162.188 130.218 161.785C129.814 161.381 129.588 160.835 129.588 160.264C129.588 159.694 129.814 159.147 130.218 158.744C130.621 158.341 131.168 158.114 131.738 158.114H143.348C143.919 158.114 144.465 158.341 144.869 158.744C145.272 159.147 145.498 159.694 145.498 160.264C145.498 160.835 145.272 161.381 144.869 161.785C144.465 162.188 143.919 162.414 143.348 162.414Z" fill="#E6E6E6"/>
<path d="M146.016 224.766H129.071C128.659 224.767 128.25 224.686 127.869 224.528C127.488 224.371 127.142 224.14 126.85 223.848C126.558 223.557 126.327 223.211 126.169 222.83C126.011 222.449 125.93 222.041 125.93 221.628C125.93 221.216 126.011 220.807 126.169 220.427C126.327 220.046 126.558 219.699 126.85 219.408C127.142 219.117 127.488 218.886 127.869 218.728C128.25 218.571 128.659 218.49 129.071 218.49H146.016C146.848 218.49 147.647 218.821 148.235 219.409C148.824 219.998 149.154 220.796 149.154 221.628C149.154 222.46 148.824 223.259 148.235 223.847C147.647 224.436 146.848 224.766 146.016 224.766Z" fill="#007F00"/>
<path d="M174.654 192.516H94.3564C92.289 192.513 90.307 191.691 88.8451 190.229C87.3832 188.767 86.5609 186.785 86.5586 184.718V176.663C86.5609 174.595 87.3832 172.613 88.8451 171.151C90.307 169.689 92.289 168.867 94.3564 168.865H174.654C176.721 168.867 178.703 169.689 180.165 171.151C181.627 172.613 182.449 174.595 182.452 176.663V184.718C182.449 186.785 181.627 188.767 180.165 190.229C178.703 191.691 176.721 192.513 174.654 192.516ZM94.3564 169.725C92.517 169.727 90.7536 170.459 89.453 171.759C88.1523 173.06 87.4207 174.823 87.4186 176.663V184.718C87.4207 186.557 88.1523 188.321 89.453 189.621C90.7536 190.922 92.517 191.653 94.3564 191.655H174.654C176.493 191.653 178.257 190.922 179.557 189.621C180.858 188.321 181.59 186.557 181.592 184.718V176.663C181.59 174.823 180.858 173.06 179.557 171.759C178.257 170.458 176.493 169.727 174.654 169.725H94.3564Z" fill="#E6E6E6"/>
<path d="M189.395 83.208H85.5469V84.068H189.395V83.208Z" fill="#E6E6E6"/>
<path d="M186.694 117.336C186.795 118.055 187.172 118.706 187.746 119.15C188.32 119.595 189.044 119.798 189.766 119.717C189.912 119.698 190.056 119.667 190.198 119.625L195.975 127.443L200.974 125.908L191.902 116.053C191.679 115.481 191.274 114.999 190.749 114.681C190.223 114.364 189.608 114.229 188.998 114.299C188.651 114.341 188.317 114.452 188.013 114.624C187.709 114.796 187.442 115.026 187.227 115.302C187.012 115.577 186.854 115.892 186.76 116.229C186.667 116.565 186.641 116.917 186.684 117.263C186.687 117.287 186.69 117.312 186.694 117.336Z" fill="#FFB6B6"/>
<path d="M259.393 172.228C258.877 171.718 258.58 171.026 258.567 170.3C258.553 169.575 258.823 168.872 259.319 168.342C259.421 168.236 259.533 168.139 259.651 168.051L256.834 158.747L261.052 155.656L263.533 168.819C263.859 169.339 264.004 169.953 263.944 170.563C263.885 171.174 263.625 171.748 263.205 172.196C262.964 172.448 262.675 172.651 262.355 172.791C262.036 172.932 261.692 173.009 261.342 173.016C260.993 173.024 260.646 172.963 260.321 172.837C259.995 172.71 259.698 172.521 259.445 172.28C259.428 172.263 259.41 172.246 259.393 172.228Z" fill="#FFB6B6"/>
<path d="M235.486 250.452L231.228 250.452L229.203 234.03L235.487 234.03L235.486 250.452Z" fill="#FFB6B6"/>
<path d="M235.636 254.894L222.543 254.894V254.728C222.543 253.377 223.08 252.081 224.036 251.125C224.991 250.169 226.287 249.632 227.639 249.632L230.031 247.818L234.493 249.632L235.636 249.633L235.636 254.894Z" fill="#2F2E41"/>
<path d="M253.976 250.453L249.719 250.452L247.693 234.03L253.977 234.03L253.976 250.453Z" fill="#FFB6B6"/>
<path d="M254.126 254.894L241.033 254.894V254.728C241.033 253.377 241.57 252.081 242.526 251.125C243.482 250.169 244.778 249.632 246.129 249.632L248.521 247.818L252.983 249.632L254.126 249.633L254.126 254.894Z" fill="#2F2E41"/>
<path d="M222.873 162.181C222.873 162.181 218.026 168.937 221.524 180.61C225.023 192.282 223.059 202.717 224.041 204.81C225.023 206.902 226.999 208.89 225.366 210.476C223.733 212.063 222.873 213.353 224.163 213.783C225.453 214.213 229.753 244.314 229.753 244.314L237.063 244.744C237.063 244.744 239.711 230.761 236.882 219.477C236.882 219.477 237.503 211.285 236.208 208.879C234.913 206.472 235.167 208.643 235.255 205.623C235.304 203.438 235.622 201.268 236.203 199.162C236.633 197.442 236.882 180.106 236.882 180.106L246.386 201.52C246.671 202.313 246.778 203.159 246.699 203.997C246.523 205.182 246.522 206.953 246.738 207.573C246.953 208.193 247.194 208.323 247.074 209.548C246.953 210.773 246.953 243.257 246.953 243.257H255.124L258.994 210.773C258.298 210.001 257.718 209.132 257.274 208.192C256.414 206.472 256.38 206.378 256.827 205.135C257.274 203.892 257.274 201.471 257.274 200.747C257.274 200.022 257.72 167.127 252.122 162.289C246.523 157.451 222.873 162.181 222.873 162.181Z" fill="#2F2E41"/>
<path d="M247.962 110.543L239.8 108.428L235.99 103.173L226.942 104.285L225.016 111.453L218.574 115.192C218.574 115.192 222.135 152.849 221.288 154.916C220.441 156.984 217.404 156.813 219.998 159.479C222.591 162.144 222.934 161.071 222.333 163.973C221.731 166.874 217.344 169.946 222.333 169.915C227.321 169.885 257.422 169.455 256.562 166.014C255.702 162.574 255.715 163.448 254.419 161.291C253.122 159.134 252.249 160.34 252.685 157.157C253.122 153.974 252.692 151.824 252.692 150.104C252.692 148.384 251.251 132.753 251.251 132.753L247.962 110.543Z" fill="#3F3D56"/>
<path d="M222.496 114.469C222.496 114.469 214.42 113.553 212.7 117.423C210.98 121.293 206.645 129.351 206.645 129.351C206.645 129.351 203.266 125.816 202.939 124.213C202.661 122.853 202.508 125.125 200.238 122.665C199.221 121.563 200.081 121.563 198.791 121.133L196.211 120.273L191.911 124.143C191.911 124.143 191.826 128.819 194.061 128.873C196.295 128.927 193.201 128.013 196.211 131.023C197.765 132.577 196.339 132.32 198.93 133.902C201.52 135.483 201.228 135.477 202.019 136.34C202.81 137.203 207.056 137.832 207.056 137.832L226.071 127.309L222.496 114.469Z" fill="#3F3D56"/>
<path d="M243.719 112.169C243.719 112.169 247.182 107.096 253.1 113.687C259.019 120.279 263.444 150.369 263.167 151.449C262.889 152.53 261.328 151.91 263.184 153.725C265.039 155.54 266.329 154.25 265.039 155.54C263.749 156.83 261.057 158.044 263.263 158.512C265.469 158.98 256.887 161.556 256.887 161.556C256.887 161.556 255.636 161.099 255.584 158.086C255.554 156.394 256.414 155.534 255.124 155.104C253.834 154.674 255.42 151.802 255.284 151.306C255.149 150.809 246.979 128.879 246.979 128.879L243.719 112.169Z" fill="#3F3D56"/>
<path d="M230.11 102.273C235.585 102.273 240.024 97.8346 240.024 92.3591C240.024 86.8836 235.585 82.4448 230.11 82.4448C224.634 82.4448 220.195 86.8836 220.195 92.3591C220.195 97.8346 224.634 102.273 230.11 102.273Z" fill="#FFB6B6"/>
<path d="M236.632 100.062C234.289 98.2303 237.492 90.1718 233.622 91.8919C233.622 91.8919 228.892 88.8818 227.942 90.8598C226.841 93.1503 222.928 92.1112 220.524 91.3028C220.713 90.8636 220.847 90.4029 220.924 89.931C220.48 90.2806 220.01 90.5955 219.518 90.8727C219.187 90.6963 218.895 90.4567 218.658 90.1675C218.423 89.899 218.276 89.5651 218.237 89.2107C218.198 88.8564 218.268 88.4985 218.438 88.1852C218.838 87.5702 219.664 87.381 220.15 86.8349C220.206 86.7581 220.243 86.6688 220.257 86.5748C220.271 86.4807 220.262 86.3846 220.23 86.2947C220.173 86.075 220.164 85.8452 220.205 85.6217C220.246 85.3982 220.336 85.1865 220.468 85.0017C220.6 84.8169 220.771 84.6636 220.97 84.5525C221.168 84.4415 221.388 84.3756 221.615 84.3595C221.706 84.3623 221.797 84.3426 221.878 84.3021C222.286 84.0525 222.663 83.7551 223.001 83.4163C222.436 83.4436 221.869 83.4278 221.306 83.369C221.19 83.3561 221.074 83.3432 220.958 83.326C221.173 82.8214 221.495 82.3692 221.901 82.0003C222.307 81.6315 222.787 81.3547 223.31 81.1888C224.414 80.8551 225.563 80.6941 226.716 80.7115C227.383 80.69 228.049 80.6685 228.711 80.647C230.116 80.5471 231.527 80.5961 232.921 80.7932C234.41 81.0649 235.821 81.6622 237.053 82.5423C238.285 83.4224 239.307 84.5637 240.046 85.8846C241.504 88.5292 243.082 97.052 236.632 100.062Z" fill="#2F2E41"/>
<path d="M211.334 146.746L160.226 164.816C158.963 165.261 157.574 165.186 156.365 164.609C155.156 164.032 154.226 162.998 153.778 161.736L144.998 136.904C144.553 135.64 144.627 134.252 145.205 133.043C145.782 131.834 146.816 130.903 148.078 130.455L199.185 112.386C200.449 111.941 201.837 112.015 203.046 112.593C204.255 113.17 205.186 114.203 205.634 115.466L214.413 140.298C214.858 141.561 214.784 142.95 214.207 144.159C213.629 145.368 212.596 146.298 211.334 146.746Z" fill="#007F00"/>
<path d="M157.037 136.221C153.649 138.45 149.307 136.772 147.789 134.329L148.031 134.191C150.915 132.394 155.198 133.395 157.037 136.221Z" fill="white"/>
<path d="M199.489 142.545C199.136 142.692 198.757 142.764 198.375 142.757C197.993 142.75 197.617 142.664 197.27 142.505C195.815 141.783 195.133 139.64 194.585 137.918C194.425 137.417 194.274 136.944 194.121 136.557L194.119 136.552C193.852 135.784 193.898 134.943 194.248 134.21C194.598 133.477 195.223 132.912 195.987 132.637L202.861 130.206C203.214 130.06 203.593 129.988 203.974 129.995C204.355 130.001 204.731 130.087 205.078 130.246C206.532 130.968 207.215 133.11 207.764 134.831C207.924 135.332 208.075 135.807 208.229 136.194C208.498 136.962 208.452 137.805 208.102 138.539C207.753 139.273 207.127 139.84 206.362 140.115L199.489 142.545Z" fill="white"/>
<path d="M157.365 149.383C157.243 149.432 157.109 149.446 156.979 149.425C156.849 149.403 156.727 149.346 156.627 149.261C156.509 149.158 156.42 149.027 156.368 148.88C156.316 148.733 156.303 148.575 156.33 148.421C156.355 148.289 156.416 148.166 156.506 148.067C156.596 147.967 156.712 147.894 156.842 147.857L159.458 146.932C159.582 146.88 159.718 146.864 159.851 146.885C159.983 146.906 160.108 146.963 160.21 147.05C160.328 147.153 160.417 147.284 160.469 147.431C160.52 147.578 160.534 147.736 160.507 147.889C160.482 148.021 160.421 148.144 160.33 148.243C160.24 148.343 160.124 148.415 159.995 148.453L157.379 149.379L157.365 149.383Z" fill="white"/>
<path d="M155.976 155.32C155.747 155.362 155.51 155.342 155.291 155.26C155.072 155.178 154.879 155.038 154.734 154.855C154.565 154.637 154.454 154.379 154.414 154.105C154.373 153.832 154.404 153.553 154.503 153.294C154.591 153.073 154.739 152.88 154.93 152.737C155.121 152.595 155.347 152.508 155.585 152.486L165.33 149.216C165.563 149.168 165.805 149.186 166.029 149.268C166.253 149.349 166.45 149.491 166.598 149.677C166.768 149.896 166.878 150.154 166.918 150.428C166.959 150.701 166.928 150.98 166.829 151.238C166.74 151.459 166.592 151.651 166.401 151.794C166.211 151.936 165.984 152.023 165.747 152.045L156.002 155.316L155.976 155.32Z" fill="white"/>
<path d="M207.546 120.871L147.084 142.248L147.186 142.537L207.648 121.16L207.546 120.871Z" fill="white"/>
<path d="M197.931 137.474C198.881 137.474 199.651 136.704 199.651 135.754C199.651 134.804 198.881 134.034 197.931 134.034C196.981 134.034 196.211 134.804 196.211 135.754C196.211 136.704 196.981 137.474 197.931 137.474Z" fill="#007F00"/>
<path d="M203.522 137.903C204.235 137.903 204.813 137.326 204.813 136.613C204.813 135.901 204.235 135.323 203.522 135.323C202.81 135.323 202.232 135.901 202.232 136.613C202.232 137.326 202.81 137.903 203.522 137.903Z" fill="#007F00"/>
<path fill-rule="evenodd" clip-rule="evenodd" d="M115.715 37.5449L115.549 37.4111L115.167 37.7678C114.957 37.9653 114.218 38.666 113.536 39.322L112.288 40.5132C111.918 40.2839 111.606 40.1119 111.364 39.9909C111.116 39.8698 110.645 39.666 110.313 39.5386C109.976 39.4176 109.422 39.2456 109.071 39.1564C108.721 39.0673 108.205 38.9653 107.925 38.9208C107.6 38.8762 106.937 38.8571 106.109 38.8762C105.103 38.9016 104.663 38.9399 104.198 39.0418C103.861 39.1182 103.364 39.252 103.084 39.3412C102.803 39.4303 102.173 39.7042 101.682 39.9463C101.115 40.2202 100.529 40.5769 100.09 40.9017C99.7013 41.1884 99.1026 41.7171 98.7522 42.0674C98.3955 42.4241 97.9497 42.9273 97.7522 43.1885C97.5547 43.456 97.2617 43.8955 97.0961 44.1758C96.9305 44.456 96.6693 44.9656 96.5165 45.3096C96.3572 45.6535 96.1343 46.2523 96.0196 46.6472C95.9713 46.8048 95.92 46.9938 95.8721 47.1852C95.126 47.5055 94.6035 48.2469 94.6035 49.1103C94.6035 50.2668 95.5411 51.2044 96.6976 51.2044C97.8542 51.2044 98.7917 50.2668 98.7917 49.1103C98.7917 48.3552 98.3921 47.6935 97.7929 47.3251C97.8533 47.1072 97.9163 46.9007 97.9688 46.7555C98.0707 46.4625 98.2873 45.9593 98.4465 45.6408C98.6057 45.3287 98.8796 44.8573 99.058 44.5898C99.2363 44.3286 99.7013 43.8 100.09 43.4114C100.542 42.9528 101.013 42.5579 101.428 42.284C101.778 42.0483 102.294 41.7553 102.574 41.6215C102.854 41.4941 103.281 41.3221 103.53 41.233C103.772 41.1502 104.23 41.0228 104.549 40.9527C104.924 40.8699 105.466 40.8126 106.141 40.7935C106.899 40.768 107.313 40.7807 107.765 40.8571C108.097 40.9145 108.619 41.0291 108.925 41.1183C109.23 41.2075 109.746 41.3922 110.071 41.5323C110.396 41.6725 110.931 41.9527 111.256 42.1566L111.848 42.5196C113.345 41.0355 114.345 40.0482 115.04 39.3666L116.294 38.1245C115.976 37.7806 115.81 37.6213 115.715 37.5449ZM114.95 41.3468L116.262 41.157L116.408 42.1656L113.546 42.5797L111.996 42.8039L113.118 41.7105L116.529 38.3837L117.241 39.1134L114.95 41.3468ZM100.571 57.7719C100.652 57.8359 100.733 57.8999 100.814 57.9643C101.917 58.8453 102.714 59.1584 104.081 59.5243C105.618 59.9355 106.586 60.038 108.15 59.7471C109.392 59.5161 110.092 59.2391 111.161 58.5692L111.175 58.5605C112.054 58.0101 112.734 57.584 113.18 56.8182C113.628 56.0484 113.18 50.8967 113.18 50.8967H105.972C105.972 50.8967 105.513 51.1792 105.491 51.4697C105.467 51.7897 105.67 52.0223 105.972 52.1383C106.17 52.2147 106.516 52.1383 106.516 52.1383H111.546V56.3088L109.848 57.5823V53.9211H106.516C106.516 53.9211 105.869 53.8797 105.491 53.7301C104.984 53.5297 104.712 53.3245 104.37 52.9024C104.064 52.5256 103.941 52.258 103.825 51.7881C103.694 51.2568 103.724 50.925 103.825 50.3873C103.832 50.3516 103.838 50.3173 103.844 50.2841C103.895 50.0083 103.931 49.8114 104.081 49.5596C104.25 49.2775 104.626 49.082 104.626 49.082H115.07C115.07 49.082 115.293 57.2002 115.07 57.5823C114.883 57.9015 114.415 58.2924 113.921 58.7055C113.824 58.7867 113.725 58.8687 113.628 58.9512C113.601 58.9745 113.574 58.9974 113.547 59.0199C112.999 59.4853 112.664 59.7695 112.026 60.161C111.116 60.7196 110.552 60.9689 109.528 61.2752C108.686 61.5269 108.192 61.6164 107.317 61.6891C106.606 61.7481 106.202 61.7401 105.491 61.6891C104.529 61.6202 103.977 61.5595 103.056 61.2752C102.328 61.0506 101.936 60.8653 101.262 60.5112C100.846 60.2926 100.567 60.1045 100.256 59.8942C100.087 59.7802 99.9078 59.6597 99.6924 59.5243C99.3757 59.3251 98.6681 58.6096 98.0579 57.9643C97.4869 57.3605 97.0605 56.6926 97.0605 56.6926L97.4959 53.7301C97.4959 53.7301 97.9491 54.8841 98.3789 55.5447C99.0399 56.5608 99.8068 57.1674 100.571 57.7719Z" fill="#007F00"/>
<path d="M130.369 52.5679C130.369 53.9304 130.2 55.1437 129.862 56.2079C129.534 57.2621 129.056 58.1522 128.43 58.8782C127.813 59.5943 127.062 60.1413 126.177 60.5192C125.292 60.8971 124.297 61.0861 123.193 61.0861C122.169 61.0861 121.224 60.8971 120.359 60.5192C119.494 60.1413 118.743 59.5943 118.106 58.8782C117.48 58.1522 116.988 57.2621 116.63 56.2079C116.281 55.1437 116.107 53.9304 116.107 52.5679C116.107 51.2153 116.272 50.0169 116.6 48.9726C116.938 47.9184 117.415 47.0333 118.032 46.3172C118.648 45.5912 119.399 45.0442 120.284 44.6762C121.18 44.2983 122.179 44.1093 123.283 44.1093C124.307 44.1093 125.252 44.2983 126.117 44.6762C126.983 45.0442 127.729 45.5912 128.355 46.3172C128.992 47.0333 129.484 47.9184 129.832 48.9726C130.19 50.0169 130.369 51.2153 130.369 52.5679ZM118.912 52.5679C118.912 54.6465 119.25 56.2128 119.926 57.2671C120.613 58.3113 121.722 58.8334 123.253 58.8334C124.785 58.8334 125.884 58.3113 126.55 57.2671C127.226 56.2128 127.564 54.6465 127.564 52.5679C127.564 50.4893 127.221 48.9378 126.535 47.9134C125.859 46.8791 124.755 46.362 123.223 46.362C121.692 46.362 120.588 46.8791 119.912 47.9134C119.245 48.9378 118.912 50.4893 118.912 52.5679Z" fill="#007F00"/>
<path d="M141.897 60.7877L141.494 58.5948H141.345C141.096 59.0224 140.798 59.3954 140.449 59.7136C140.111 60.0219 139.738 60.2805 139.331 60.4894C138.923 60.6883 138.49 60.8374 138.033 60.9369C137.575 61.0363 137.108 61.0861 136.63 61.0861C135.725 61.0861 134.93 60.9717 134.244 60.743C133.557 60.5142 132.986 60.1562 132.528 59.6689C132.071 59.1815 131.722 58.5599 131.484 57.8041C131.255 57.0483 131.141 56.1482 131.141 55.1039V46.6902L133.856 44.4077V54.9548C133.856 56.2477 134.119 57.2173 134.646 57.8638C135.173 58.5102 135.989 58.8334 137.093 58.8334C137.899 58.8334 138.575 58.7042 139.122 58.4456C139.669 58.187 140.106 57.8091 140.435 57.3118C140.773 56.8046 141.011 56.183 141.151 55.4471C141.3 54.7111 141.374 53.8657 141.374 52.911V44.4077L144.034 45.2355L144.09 60.7877H141.897Z" fill="#007F00"/>
<path d="M153.036 46.4515H149.381V60.7877H146.651V46.4515H143.757V45.3326L146.651 44.3182V42.8861C146.651 41.8219 146.761 40.9417 146.979 40.2456C147.208 39.5394 147.531 38.9775 147.949 38.5598C148.377 38.1421 148.899 37.8487 149.515 37.6797C150.132 37.5006 150.828 37.4111 151.604 37.4111C152.191 37.4111 152.728 37.4708 153.215 37.5901C153.712 37.6995 154.155 37.8239 154.543 37.9631L153.842 40.0665C153.533 39.9571 153.195 39.8627 152.827 39.7831C152.469 39.6936 152.091 39.6488 151.694 39.6488C151.296 39.6488 150.953 39.6986 150.664 39.798C150.376 39.8875 150.137 40.0516 149.948 40.2903C149.759 40.529 149.615 40.8572 149.515 41.2749C149.426 41.6827 149.381 42.2098 149.381 42.8562V44.4077H153.036V46.4515Z" fill="#007F00"/>
<path d="M159.089 61.0861C157.995 61.0861 156.995 60.9021 156.09 60.5341C155.185 60.1661 154.404 59.6291 153.748 58.923C153.102 58.2168 152.599 57.3416 152.241 56.2974C151.883 55.2531 151.704 54.0597 151.704 52.717C151.704 51.3645 151.868 50.1561 152.197 49.092C152.525 48.0278 152.987 47.1278 153.584 46.3918C154.181 45.6459 154.892 45.079 155.717 44.6911C156.553 44.3033 157.473 44.1093 158.477 44.1093C159.462 44.1093 160.347 44.2884 161.132 44.6464C161.918 44.9945 162.584 45.4917 163.131 46.1382C163.678 46.7747 164.096 47.5455 164.385 48.4505C164.683 49.3456 164.832 50.3401 164.832 51.4341V53.1198H154.509C154.559 55.0393 154.961 56.4515 155.717 57.3566C156.483 58.2616 157.617 58.7141 159.119 58.7141C159.626 58.7141 160.093 58.6892 160.521 58.6395C160.958 58.5898 161.376 58.5202 161.774 58.4307C162.182 58.3312 162.575 58.2119 162.952 58.0726C163.33 57.9234 163.713 57.7593 164.101 57.5803V59.9971C163.703 60.186 163.311 60.3501 162.923 60.4894C162.545 60.6286 162.152 60.743 161.744 60.8325C161.346 60.922 160.929 60.9866 160.491 61.0264C160.063 61.0662 159.596 61.0861 159.089 61.0861ZM158.417 46.362C157.284 46.362 156.384 46.7498 155.717 47.5256C155.061 48.3013 154.678 49.4301 154.569 50.912H161.908C161.908 50.2357 161.839 49.6191 161.699 49.0621C161.57 48.4952 161.361 48.0129 161.073 47.6151C160.794 47.2173 160.436 46.909 159.999 46.6902C159.561 46.4714 159.034 46.362 158.417 46.362Z" fill="#007F00"/>
<path d="M172.69 44.1093C172.978 44.1093 173.301 44.1243 173.659 44.1541C174.017 44.174 174.326 44.2088 174.584 44.2585L174.226 46.7647C173.948 46.715 173.659 46.6752 173.361 46.6454C173.073 46.6056 172.799 46.5857 172.541 46.5857C171.914 46.5857 171.342 46.715 170.825 46.9736C170.308 47.2222 169.86 47.5852 169.482 48.0626C169.114 48.5301 168.826 49.0969 168.617 49.7633C168.418 50.4197 168.319 51.1507 168.319 51.9562V60.7877H165.604V44.4077H167.812L168.14 47.4062H168.259C168.508 46.9786 168.771 46.5658 169.05 46.168C169.338 45.7702 169.656 45.4221 170.005 45.1238C170.363 44.8155 170.76 44.5718 171.198 44.3928C171.636 44.2038 172.133 44.1093 172.69 44.1093Z" fill="#007F00"/>
<path d="M2.26489e-06 255.488C-0.000198152 255.556 0.0129042 255.622 0.0385511 255.684C0.0641979 255.747 0.101887 255.803 0.149447 255.851C0.197007 255.898 0.253498 255.936 0.315676 255.961C0.377854 255.987 0.444488 256 0.511746 256H308.097C308.232 256 308.362 255.946 308.458 255.85C308.554 255.754 308.608 255.624 308.608 255.488C308.608 255.353 308.554 255.222 308.458 255.126C308.362 255.03 308.232 254.977 308.097 254.977H0.51172C0.444465 254.976 0.377836 254.989 0.315663 255.015C0.253489 255.041 0.196997 255.078 0.14944 255.126C0.101884 255.174 0.0641971 255.23 0.0385511 255.292C0.012905 255.354 -0.000195852 255.421 2.26489e-06 255.488Z" fill="#CCCCCC"/>
<path d="M106.925 244.4C106.678 244.411 106.433 244.346 106.224 244.214C106.015 244.081 105.851 243.888 105.756 243.659C105.66 243.431 105.637 243.179 105.69 242.937C105.742 242.695 105.868 242.475 106.05 242.307L106.133 241.978C106.122 241.952 106.111 241.926 106.1 241.899C105.851 241.311 105.433 240.809 104.9 240.458C104.367 240.106 103.741 239.919 103.102 239.921C102.463 239.924 101.839 240.115 101.309 240.471C100.778 240.827 100.364 241.331 100.12 241.922C99.1416 244.277 97.8964 246.637 97.5897 249.128C97.4547 250.229 97.5117 251.345 97.7581 252.426C95.4609 247.415 94.268 241.969 94.2603 236.456C94.2598 235.073 94.3367 233.69 94.4905 232.316C94.6176 231.189 94.794 230.07 95.0197 228.959C96.2509 222.931 98.8945 217.281 102.733 212.473C104.591 211.459 106.094 209.901 107.039 208.006C107.381 207.326 107.623 206.599 107.757 205.849C107.547 205.876 106.966 202.684 107.124 202.488C106.832 202.045 106.31 201.825 105.991 201.392C104.404 199.241 102.218 199.617 101.077 202.54C98.6396 203.77 98.616 205.811 100.112 207.773C101.063 209.021 101.194 210.711 102.029 212.047C101.943 212.157 101.854 212.264 101.768 212.374C100.198 214.393 98.829 216.561 97.6817 218.847C97.9608 216.286 97.6278 213.695 96.7101 211.288C95.7802 209.044 94.037 207.155 92.502 205.215C90.6582 202.886 86.8773 203.902 86.5525 206.856C86.5493 206.884 86.5462 206.913 86.5433 206.941C86.7713 207.07 86.9944 207.206 87.2128 207.351C87.4872 207.534 87.6997 207.796 87.8227 208.102C87.9456 208.408 87.9732 208.745 87.9019 209.067C87.8305 209.389 87.6635 209.682 87.4227 209.907C87.182 210.133 86.8787 210.281 86.5526 210.331L86.5192 210.336C86.6004 211.158 86.744 211.972 86.9487 212.772C84.9794 220.388 89.2309 223.161 95.3014 223.286C95.4354 223.355 95.566 223.424 95.7 223.489C94.5473 226.755 93.8243 230.158 93.5491 233.611C93.3933 235.648 93.4025 237.695 93.5766 239.73L93.5663 239.658C93.1264 237.395 91.9189 235.352 90.1475 233.876C87.5166 231.714 83.7996 230.919 80.9613 229.181C80.6597 228.988 80.3089 228.884 79.9505 228.883C79.592 228.883 79.2408 228.984 78.9382 229.176C78.6356 229.369 78.3943 229.643 78.2427 229.968C78.0911 230.293 78.0356 230.654 78.0827 231.01C78.0865 231.035 78.0904 231.06 78.0943 231.086C78.5174 231.258 78.9294 231.456 79.3278 231.68C79.5558 231.809 79.779 231.945 79.9973 232.09C80.2717 232.273 80.4842 232.535 80.6072 232.841C80.7301 233.147 80.7577 233.483 80.6864 233.805C80.615 234.128 80.448 234.421 80.2072 234.646C79.9665 234.872 79.6632 235.019 79.3371 235.07L79.3037 235.075C79.2797 235.078 79.259 235.082 79.235 235.085C79.958 236.811 80.9726 238.4 82.2346 239.782C83.4659 246.43 88.7544 247.061 94.4115 245.125H94.4149C95.0356 247.822 95.935 250.447 97.0984 252.959H106.685C106.719 252.852 106.75 252.742 106.781 252.636C105.894 252.692 105.003 252.638 104.128 252.478C104.84 251.605 105.551 250.725 106.262 249.853C106.278 249.836 106.293 249.819 106.307 249.801C106.667 249.354 107.032 248.911 107.392 248.465L107.393 248.464C107.412 247.095 107.254 245.729 106.925 244.4Z" fill="#F2F2F2"/>
</g>
<defs>
<clipPath id="clip0_1415_38347">
<rect width="308.608" height="256" fill="white"/>
</clipPath>
</defs>
</svg>
