<svg width="46" height="32" viewBox="0 0 46 32" fill="none" xmlns="http://www.w3.org/2000/svg">
<rect width="45.3333" height="32" rx="4" fill="white" fill-opacity="0.1"/>
<path opacity="0.5" fill-rule="evenodd" clip-rule="evenodd" d="M22.9053 22.4392C21.3266 23.7699 19.2787 24.5733 17.0409 24.5733C12.0478 24.5733 8 20.5737 8 15.6399C8 10.7062 12.0478 6.7066 17.0409 6.7066C19.2787 6.7066 21.3266 7.50993 22.9053 8.84066C24.484 7.50993 26.5319 6.7066 28.7697 6.7066C33.7629 6.7066 37.8106 10.7062 37.8106 15.6399C37.8106 20.5737 33.7629 24.5733 28.7697 24.5733C26.5319 24.5733 24.484 23.7699 22.9053 22.4392Z" fill="white"/>
<path opacity="0.5" fill-rule="evenodd" clip-rule="evenodd" d="M22.9062 22.4392C24.8502 20.8007 26.0828 18.3625 26.0828 15.6399C26.0828 12.9173 24.8502 10.4792 22.9062 8.84066C24.485 7.50993 26.5329 6.7066 28.7706 6.7066C33.7638 6.7066 37.8116 10.7062 37.8116 15.6399C37.8116 20.5737 33.7638 24.5733 28.7706 24.5733C26.5329 24.5733 24.485 23.7699 22.9062 22.4392Z" fill="white"/>
<path fill-rule="evenodd" clip-rule="evenodd" d="M22.905 22.4392C24.8489 20.8007 26.0815 18.3625 26.0815 15.6399C26.0815 12.9174 24.8489 10.4792 22.905 8.8407C20.9611 10.4792 19.7285 12.9174 19.7285 15.6399C19.7285 18.3625 20.9611 20.8007 22.905 22.4392Z" fill="white"/>
</svg>
